<?xml version="1.0" encoding="UTF-8"?>
<svg width="439px" height="451px" viewBox="0 0 439 451" version="1.1" xmlns="http://www.w3.org/2000/svg" xmlns:xlink="http://www.w3.org/1999/xlink">
    <title>Group 97</title>
    <defs>
        <polygon id="path-1" points="0 0 375 0 375 451 0 451"></polygon>
        <path d="M0,263.505618 L0,76.011236 L187.500194,0 L375.000387,76.011236 L375.000387,263.505618 C375.000387,367.055361 187.500194,451 187.500194,451 C187.500194,451 0,367.055361 0,263.505618 Z" id="path-3"></path>
        <filter x="-1.5%" y="-1.7%" width="105.1%" height="104.3%" filterUnits="objectBoundingBox" id="filter-4">
            <feMorphology radius="1.5" operator="dilate" in="SourceAlpha" result="shadowSpreadOuter1"></feMorphology>
            <feOffset dx="4" dy="2" in="shadowSpreadOuter1" result="shadowOffsetOuter1"></feOffset>
            <feGaussianBlur stdDeviation="1" in="shadowOffsetOuter1" result="shadowBlurOuter1"></feGaussianBlur>
            <feColorMatrix values="0 0 0 0 0.77265625   0 0 0 0 0.886949147   0 0 0 0 1  0 0 0 0.5 0" type="matrix" in="shadowBlurOuter1"></feColorMatrix>
        </filter>
        <path d="M0,61.2077742 L0,230.433707 C0,277.825056 83.0022134,340.031007 150.574738,375.193617 L150.574738,375.193617 C218.148682,340.031007 301.150895,277.825056 301.150895,230.433707 L301.150895,230.433707 L301.150895,61.2077742 L150.574738,0 L0,61.2077742 Z" id="path-5"></path>
        <linearGradient x1="22.4690713%" y1="19.4893185%" x2="65.2233373%" y2="72.7820445%" id="linearGradient-7">
            <stop stop-color="#00BFED" offset="0%"></stop>
            <stop stop-color="#0040E4" offset="100%"></stop>
        </linearGradient>
        <polygon id="path-8" points="0 0 37 0 37 14 0 14"></polygon>
        <polygon id="path-10" points="0 0 26 0 26 10 0 10"></polygon>
        <linearGradient x1="12.9726011%" y1="40.0025118%" x2="85.2193625%" y2="58.8376879%" id="linearGradient-12">
            <stop stop-color="#010FB1" offset="0%"></stop>
            <stop stop-color="#0040E4" offset="100%"></stop>
        </linearGradient>
    </defs>
    <g id="Page-1" stroke="none" stroke-width="1" fill="none" fill-rule="evenodd">
        <g id="Contacto-Security-page-" transform="translate(-831.000000, -376.000000)">
            <g id="Group-97" transform="translate(831.000000, 376.000000)">
                <g id="Group-37">
                    <g id="Group-9" transform="translate(2.000000, 0.000000)">
                        <g id="Group-3">
                            <mask id="mask-2" fill="white">
                                <use xlink:href="#path-1"></use>
                            </mask>
                            <g id="Clip-2"></g>
                            <g id="Fill-1" mask="url(#mask-2)">
                                <use fill="black" fill-opacity="1" filter="url(#filter-4)" xlink:href="#path-3"></use>
                                <use fill="#FFFFFF" fill-rule="evenodd" xlink:href="#path-3"></use>
                            </g>
                        </g>
                        <g id="Group-6" opacity="0.118722098" transform="translate(37.404092, 37.423404)">
                            <mask id="mask-6" fill="white">
                                <use xlink:href="#path-5"></use>
                            </mask>
                            <g id="Clip-5"></g>
                            <path d="M0,61.2077742 L0,230.433707 C0,277.825056 83.0022134,340.031007 150.574738,375.193617 L150.574738,375.193617 C218.148682,340.031007 301.150895,277.825056 301.150895,230.433707 L301.150895,230.433707 L301.150895,61.2077742 L150.574738,0 L0,61.2077742 Z" id="Fill-4" fill="url(#linearGradient-7)" mask="url(#mask-6)"></path>
                        </g>
                    </g>
                    <path d="M25.5,136 C37.6153449,136 47.8324235,144.03089 51,155 L0,155 C3.16757652,144.03089 13.3846551,136 25.5,136" id="Fill-1" fill="#00A4EB" opacity="0.338681176"></path>
                    <path d="M55,142 C63.5519878,142 70.7641437,147.49476 73,155 L37,155 C39.2358563,147.49476 46.4480122,142 55,142" id="Fill-3" fill="#A1E3FF"></path>
                    <path d="M345,187 C353.07681,187 359.888239,192.072097 362,199 L328,199 C330.111761,192.072097 336.92319,187 345,187" id="Fill-8" fill="#C3CFF0"></path>
                    <path d="M365.5,191 C370.963713,191 375.571486,194.804079 377,200 L354,200 C355.428514,194.804079 360.036287,191 365.5,191" id="Fill-10" fill="#C3CFF0"></path>
                    <path d="M340,199 C337.731894,191.558305 328.743782,186 317.999908,186 C307.256218,186 298.268106,191.558305 296,199 L340,199 Z" id="Fill-12" fill="#FFFFFF"></path>
                    <g id="Group-16" transform="translate(374.000000, 255.000000)">
                        <mask id="mask-9" fill="white">
                            <use xlink:href="#path-8"></use>
                        </mask>
                        <g id="Clip-15"></g>
                        <path d="M18.5,0 C27.2895406,0 34.7020952,5.91744907 37,14.0000919 L0,14.0000919 C2.29790475,5.91744907 9.71045941,0 18.5,0" id="Fill-14" fill="#B7CCF8" opacity="0.752278646" mask="url(#mask-9)"></path>
                    </g>
                    <g id="Group-19" transform="translate(402.000000, 260.000000)">
                        <mask id="mask-11" fill="white">
                            <use xlink:href="#path-10"></use>
                        </mask>
                        <g id="Clip-18"></g>
                        <path d="M13.0000373,0 C19.176448,0 24.3852962,4.22684921 26.0000745,10 L0,10 C1.61477835,4.22684921 6.82362655,0 13.0000373,0" id="Fill-17" fill="#B7CCF8" mask="url(#mask-11)"></path>
                    </g>
                    <path d="M388,269 C385.474071,260.413402 375.464675,254 363.500093,254 C351.535325,254 341.525743,260.413402 339,269 L388,269 Z" id="Fill-20" fill="#0049E5" opacity="0.28406343"></path>
                    <g id="Group-34" transform="translate(235.000000, 356.000000)">
                        <g id="Group-33">
                            <path d="M54.7639467,7.46297995 L55.8516599,4.77284839 C57.0179612,1.88849311 59.821027,0 62.935515,0 L83,0 L83,12.7155343 L83,67 L0,67 L0,12.7155343 L46.9682695,12.7155343 C50.3960444,12.7155343 53.4804292,10.6373405 54.7639467,7.46297995" id="Fill-59" fill="#2AD4EF"></path>
                            <path d="M28.0575383,23.8467086 C28.0575383,23.8467086 39.5857527,18.0899707 55.0204637,23.8467086 C55.0204637,23.8467086 65.6943318,47.828283 41.539001,58.3735668 C41.539001,58.3735668 18.2025854,51.3080803 28.0575383,23.8467086" id="Fill-77" fill="#FFFFFF"></path>
                        </g>
                        <path d="M39.7520887,41.7732278 C39.6455063,41.6260774 39.5979905,41.53944 39.5318359,41.4717295 C38.5116899,40.4328798 37.4902313,39.3958961 36.4671976,38.3602453 C36.0151411,37.902533 35.5368328,37.9035993 35.0797885,38.3631777 C34.6169688,38.8286207 34.1549367,39.2951301 33.6981549,39.766971 C33.2862637,40.1926941 33.2886264,40.6893266 33.7036678,41.1118508 C35.4914172,42.9307042 37.2804792,44.7479581 39.0705913,46.5641457 C39.5110969,47.0109284 39.9959682,47.0125278 40.4364738,46.5654786 C43.7027261,43.251396 46.9676658,39.9362472 50.2315555,36.6200321 C50.6725862,36.1719165 50.6731112,35.6798158 50.2370684,35.2325 C49.8054883,34.7897159 49.370233,34.3501308 48.9344527,33.9113455 C48.386052,33.3592649 47.9612975,33.362997 47.4105342,33.9220085 C44.9402372,36.430496 42.4696778,38.9389835 40.0006935,41.4488039 C39.9279759,41.5229122 39.8725846,41.6146146 39.7520887,41.7732278" id="Fill-78" fill="#4D7EF7"></path>
                    </g>
                    <g id="Group-26" transform="translate(101.397919, 105.000000)">
                        <path d="M161.007293,183.938931 L142.071099,183.938931 L142.071099,69.1101228 C142.071099,41.5323266 119.820764,19.093276 92.4657461,19.093276 C65.1148351,19.093276 42.8603927,41.5323266 42.8603927,69.1101228 L42.8603927,183.938931 L23.924199,183.938931 L23.924199,69.1101228 C23.924199,31.006387 54.6754934,0 92.4657461,0 C130.260105,0 161.007293,31.006387 161.007293,69.1101228 L161.007293,183.938931 Z" id="Fill-42" fill="#0040E4"></path>
                        <path d="M172.150011,212 L13.8228585,212 C6.19013034,212 0,205.787249 0,198.126628 L0,106.121464 C0,98.460843 6.19013034,92.2480916 13.8228585,92.2480916 L172.150011,92.2480916 C179.782739,92.2480916 185.972869,98.460843 185.972869,106.121464 L185.972869,198.126628 C185.972869,205.787249 179.782739,212 172.150011,212" id="Fill-44" fill="url(#linearGradient-12)"></path>
                        <path d="M93.9450576,151.645038 C85.471775,151.645038 78.607089,144.781585 78.607089,136.318803 C78.607089,127.852003 85.471775,120.98855 93.9450576,120.98855 C102.41834,120.98855 109.283026,127.852003 109.283026,136.318803 C109.283026,144.781585 102.41834,151.645038 93.9450576,151.645038" id="Fill-46" fill="#FFFFFF"></path>
                        <polygon id="Fill-48" fill="#FFFFFF" points="87.2346964 175.59542 96.8209267 175.59542 96.8209267 144.938931 87.2346964 144.938931"></polygon>
                    </g>
                    <g id="Group-62" transform="translate(242.000000, 47.000000)">
                        <path d="M152.196944,42 L20.8030555,42 C9.31448284,42 0,32.5979784 0,20.9995862 L0,20.9995862 C0,9.40202164 9.31448284,0 20.8030555,0 L152.196944,0 C163.686337,0 173,9.40202164 173,20.9995862 L173,20.9995862 C173,32.5979784 163.686337,42 152.196944,42" id="Fill-50" fill="#89E3FF"></path>
                        <polygon id="Fill-51" fill="#FFFFFF" points="40.4407412 20.1988393 43.8155227 23.3436164 40.0818086 26 38 21.8760538 35.9173756 26 32.1844773 23.3436164 35.5592588 20.1988393 31 19.5698839 32.3998368 15.3061698 36.4916676 17.4026878 35.6661228 13 40.2971682 13 39.4716234 17.4376298 43.6001632 15.3061698 45 19.5698839"></polygon>
                        <polygon id="Fill-52" fill="#FFFFFF" points="60.4407412 20.1988393 63.8155227 23.3436164 60.0818086 26 58 21.8760538 55.9173756 26 52.1844773 23.3436164 55.5592588 20.1988393 51 19.5698839 52.3998368 15.3061698 56.4916676 17.4026878 55.6661228 13 60.2971682 13 59.4716234 17.4376298 63.6001632 15.3061698 65 19.5698839"></polygon>
                        <polygon id="Fill-53" fill="#FFFFFF" points="80.4407412 20.1988393 83.8155227 23.3436164 80.0818086 26 78 21.8760538 75.9173756 26 72.1844773 23.3436164 75.5592588 20.1988393 71 19.5698839 72.3998368 15.3061698 76.4916676 17.4026878 75.6661228 13 80.2971682 13 79.4716234 17.4376298 83.6001632 15.3061698 85 19.5698839"></polygon>
                        <polygon id="Fill-54" fill="#FFFFFF" points="99.4407412 20.1988393 102.815523 23.3436164 99.0818086 26 97 21.8760538 94.9173756 26 91.1844773 23.3436164 94.5592588 20.1988393 90 19.5698839 91.3998368 15.3061698 95.4916676 17.4026878 94.6661228 13 99.2971682 13 98.4716234 17.4376298 102.600163 15.3061698 104 19.5698839"></polygon>
                        <polygon id="Fill-55" fill="#FFFFFF" points="119.440741 20.1988393 122.815523 23.3436164 119.081809 26 117 21.8760538 114.917376 26 111.184477 23.3436164 114.559259 20.1988393 110 19.5698839 111.399837 15.3061698 115.491668 17.4026878 114.666123 13 119.297168 13 118.471623 17.4376298 122.600163 15.3061698 124 19.5698839"></polygon>
                        <polygon id="Fill-56" fill="#FFFFFF" points="138.440741 20.1988393 141.815523 23.3436164 138.081809 26 136 21.8760538 133.917376 26 130.184477 23.3436164 133.559259 20.1988393 129 19.5698839 130.399837 15.3061698 134.491668 17.4026878 133.666123 13 138.297168 13 137.471623 17.4376298 141.600163 15.3061698 143 19.5698839"></polygon>
                    </g>
                    <g id="Group-32" transform="translate(55.000000, 24.000000)">
                        <path d="M73.1139241,36.6428571 C73.1139241,16.4057524 56.7466287,0 36.556962,0 C16.3672954,0 0,16.4057524 0,36.6428571 C0,56.8799619 16.3672954,73.2857143 36.556962,73.2857143 C56.7466287,73.2857143 73.1139241,56.8799619 73.1139241,36.6428571" id="Fill-10" fill="#33D496"></path>
                        <path d="M51.9493671,60.7408952 C51.9493671,60.7408952 53.0305574,76.6184217 76,81 C76,81 59.4047758,74.423705 59.4610322,59.7857143 L51.9493671,60.7408952 Z" id="Fill-11" fill="#33D496"></path>
                        <polyline id="Stroke-12" stroke="#FFFFFF" stroke-width="7.474" stroke-linecap="round" points="17.3164557 35.6260245 27.7632385 46.2857143 52.3341772 21.2142857"></polyline>
                    </g>
                    <g id="Group-43" transform="translate(103.000000, 105.000000)">
                        <path d="M87.1874096,43.8375637 C86.7480395,41.6487374 87.0361511,40.1347917 88.534031,38.8975107 C90.1786678,37.538981 92.5510864,37.7470087 93.7671572,39.3568044 L127.679688,84.2451287 C128.214495,84.9529671 128.064737,85.9882678 127.341457,86.5857426 C126.618177,87.1832175 125.581275,87.1281869 124.997249,86.4608655 L123.396429,84.6330641 C96.5423317,56.9185143 89.2822207,51.3577043 87.1874096,43.8375637" id="Fill-19" fill="#F2D2B8"></path>
                        <path d="M61.1273682,89.5110037 C55.2636224,93.5176489 51.7032094,91.8945329 49.8615746,90.123273 C49.7086864,90.0350921 49.5588318,89.9392689 49.4159541,89.827867 C47.7420716,88.5207325 47.5191097,86.129561 48.924528,84.5528869 L88.1139461,40.5885466 C88.731869,39.8954449 89.8057262,39.8013853 90.5419554,40.3763246 C90.7882752,40.5685589 90.965128,40.8128199 91.0731204,41.0797141 C92.2507232,42.9021189 92.3229203,45.2309759 91.1938535,47.1359768 C85.3167604,57.0548559 68.7520578,84.3009835 61.1273682,89.5110037" id="Fill-20" fill="#F2D2B8"></path>
                        <path d="M60.8329158,70.2975695 C60.8329158,70.2975695 87.3837115,37.619575 90.230479,37.1448463 C93.0769506,36.6701177 94.1932313,36.7958422 101.870805,46.7248168 C109.548675,56.6534949 128,80.3584956 128,80.3584956 L116.607309,77.6281387 C116.607309,77.6281387 92.8310907,54.2946777 91.2210191,50.199439 C91.2210191,50.199439 77.8469519,79.1175591 70.7886136,82.7167197 C63.7299795,86.3158803 51,81.2015021 51,81.2015021 L60.8329158,70.2975695 Z" id="Fill-21" fill="#542F1B"></path>
                        <path d="M103.228184,84.0494133 C101.442931,82.7011775 100.693238,81.4376375 101.114437,79.7004079 C101.577071,77.7926832 103.655941,76.6196325 105.700233,77.1126338 L162.710583,90.8606664 C163.609618,91.0775097 164.16138,91.9148119 163.957785,92.7537693 C163.754489,93.5927268 162.869166,94.1315245 161.95612,93.9720647 L159.45456,93.5347916 C119.409628,88.3504152 109.840982,88.3553811 103.228184,84.0494133" id="Fill-22" fill="#F2D2B8"></path>
                        <path d="M53.5319849,93.8847445 C46.6422273,92.9653314 45.2370369,89.5981517 45.1484954,87.2112513 C45.1008419,87.0537812 45.0605423,86.8929607 45.0358331,86.7257185 C44.7478529,84.7659976 46.2283477,82.9698893 48.3015699,82.7635588 L106.121761,77.0089203 C107.033649,76.9181795 107.856996,77.5296326 107.983778,78.39153 C108.026137,78.6796668 107.983778,78.9605443 107.877293,79.2132224 C107.461354,81.2173365 105.917322,82.8752397 103.814095,83.4830631 C92.8646698,86.6492171 62.4908464,95.080568 53.5319849,93.8847445" id="Fill-23" fill="#FFFFFF"></path>
                        <path d="M163.171944,91.4668084 C163.712042,90.3550416 164.023615,89.2937831 164.056428,88.5869587 C166.485999,84.9655418 172.14687,77.9399231 173.960265,79.1351892 C174.628419,79.5754582 166.657902,94.7921823 166.013559,95.8043922 C165.559411,96.5179316 163.484388,95.1156691 162.298204,94.2252046 C161.963111,93.9735389 161.903293,93.4979433 162.155049,93.1621944 C162.500886,92.7017804 162.853692,92.1216647 163.171944,91.4668084" id="Fill-24" fill="#3B3E54"></path>
                        <path d="M153.220887,93.7005561 L154,88.73459 C154,88.73459 108.840231,75.8391836 106.676457,76.1485164 C105.277555,76.3484982 78.6485685,78.7031126 60.0008901,80.3424876 C57.2831924,80.581396 62.3782822,72.8040963 60.1023587,73.0037809 C53.8427533,73.5529136 42,81.9206498 42,81.9206498 L42.5583741,85.8977016 C43.4312417,92.1152624 49.0342679,96.5445761 55.2745883,95.9458194 C66.1115561,94.9054983 83.7730307,92.1607263 103.65109,84.9272106 C103.65109,84.9272106 106.685655,90.9483554 153.220887,93.7005561" id="Fill-25" fill="#542F1B"></path>
                        <path d="M37.5609459,74.8032531 C37.2675933,73.4810543 37.0008529,72.1809906 36.7687701,70.9036521 C36.6121916,70.0601601 36.4664437,69.2261124 36.3330735,68.4068214 C36.0254865,66.5418719 35.7788599,64.7267999 35.5842198,62.9365192 C35.4944811,62.0886002 35.4158824,61.2421569 35.3450198,60.4072238 C35.1726597,58.3415833 35.0662111,56.3264108 35.0247456,54.3507861 C35.0080357,53.4966693 34.9950391,52.6596703 35.0018468,51.8217858 C35.0253645,46.3529593 35.5303766,41.1913668 36.3562817,36.2272188 C36.8393233,33.3263501 37.4811094,30.7825932 38.1903543,28.5670248 C40.3193267,21.9513089 49.0224297,19.8092288 54.271832,24.5800643 L55.4050147,25.6080148 C58.3054302,28.2347043 59.4178802,32.15585 58.405071,35.852399 C57.2963344,39.9160943 57.0227862,45.8432634 58.6783098,55.0133612 C58.7798073,55.576181 58.888422,56.1511014 59.004154,56.7401882 C59.1731102,57.5765969 59.3572292,58.431304 59.5459898,59.3220173 C59.8247986,60.5657106 60.1342422,61.8702013 60.4733925,63.2216183 C60.6791725,64.0370726 60.8976398,64.8675787 61.1250808,65.7211052 C61.5298332,67.2304187 61.9710998,68.80112 62.4597114,70.4399972 C62.5958666,70.8965689 62.7344973,71.3587482 62.8780792,71.8271253 C62.9179974,71.9590501 62.9597723,72.0933359 63,72.2258509 C57.8966551,73.7682194 54.0122088,78.3879464 48.9116489,80.3485193 C46.4515718,81.2941275 43.7714802,81.5919173 41.2553938,82.3923198 C40.7200563,82.5626119 40.1865754,82.7656639 39.6679478,83 C39.1035226,81.0532984 38.5858233,79.1393567 38.1327978,77.269685 C37.9254705,76.4403594 37.7410421,75.6160512 37.5609459,74.8032531" id="Fill-26" fill="#FCB337"></path>
                        <path d="M48.3144521,28.4484286 C50.5584862,24.0092197 46.5828706,22.5639942 46.4905395,22.4773652 C45.4091601,21.4586441 42.6090478,22.1800495 41.4888236,23.6071645 L18.1212875,56.7465363 C17.6942935,57.242163 18.495094,57.97202 18.9707933,58.4199554 C19.1297582,58.5696696 19.3186037,58.6668632 19.5167122,58.7136489 C20.911838,59.3387663 22.8782812,58.8814737 24.106972,57.9119532 C30.5035149,52.8630209 45.3963114,34.2208791 48.3144521,28.4484286" id="Fill-27" fill="#FCB337"></path>
                        <path d="M13.9450448,87.776834 C13.8485678,89.1417062 13.0810266,90.3830239 11.8735384,91.1361863 C8.77559066,93.0683118 2.80317974,96.5252374 0.605581658,95.9325804 C-2.41756592,95.1173521 6.47815726,87.5649439 14,87 L13.9450448,87.776834 Z" id="Fill-28" fill="#F2D2B8"></path>
                        <path d="M13.9850462,88 C17.8104673,80.475744 23.555418,62.9639851 23.970443,57.6717396 C24.315109,53.2812262 21.5339144,53.1449247 21.421712,53.1041534 C20.1053481,52.6279911 17.7841214,53.8523233 17.3247733,55.3965769 L10,86.8125704 L13.9850462,88 Z" id="Fill-29" fill="#FCB337"></path>
                        <path d="M51.3405443,30.0641259 C48.1738048,26.3729739 51.6022993,24.0393166 51.6691241,23.9343465 C52.4549728,22.7034683 55.2770827,22.7171085 56.6728176,23.8080266 L86.5794208,49.7712241 C87.1000127,50.1406951 87.1084752,52.7587206 86.7629703,53.3001765 C86.6474129,53.4810572 86.4910019,53.6189416 86.3144559,53.7114577 C85.1390387,54.6428449 82.5042718,53.0875676 81.1814899,52.3216417 C74.6845965,48.5608062 55.4580059,34.8636909 51.3405443,30.0641259" id="Fill-30" fill="#FCB337"></path>
                        <path d="M81.9730062,21.7727019 C83.43059,21.3732438 84.5965928,20.3734255 85.1303017,19.071814 C86.498934,15.7333183 88.8469958,9.35724022 87.6887,7.43356514 C86.0959228,4.78722878 79.9923107,14.8285252 81.1435418,22 L81.9730062,21.7727019 Z" id="Fill-31" fill="#F2D2B8"></path>
                        <path d="M84.2607447,20 C86.5094534,27.9592315 88.5657065,45.8911768 87.8582333,51.0629821 C87.2716413,55.3532861 84.4452476,54.9630991 84.3237302,54.9812201 C82.8986043,55.1928272 80.8239009,53.5791772 80.6902954,52.0067379 L80,20.3957403 L84.2607447,20 Z" id="Fill-32" fill="#FCB337"></path>
                        <path d="M60.9964501,17 C60.9964501,17 61.1706386,13.3002204 59.0786727,10.8441273 C56.986366,8.38803432 57,12.0731637 57,12.0731637 L60.9964501,17 Z" id="Fill-33" fill="#2D334A"></path>
                        <path d="M45,17 C45.173096,17.1986306 47.9556865,21.1637636 48.6475484,20.9947481 C49.5965741,20.7623144 48.3285087,17.3661503 48.3285087,17.3661503 L45,17 Z" id="Fill-34" fill="#2D334A"></path>
                        <path d="M53.9668279,5.56176585 C53.9668279,5.56176585 54.2585243,2.80057103 53.1119406,1.38791811 C52.0225137,0.0460083784 50.3785186,-1.17904878 45.7998212,2.06029416 C45.1462143,2.52265138 44.8441705,3.51874065 45.0792029,4.42703257 L45.7456208,7 L53.9668279,5.56176585 Z" id="Fill-35" fill="#2D334A"></path>
                        <path d="M45.3460609,13.523028 C46.9398706,16.5962359 48.4969592,19.0288838 51.0848006,19.7330065 C51.9922958,19.9801344 53.0623316,20.0984928 54.2103642,19.8998589 C54.9277067,19.7754731 55.6746538,19.5280712 56.4309946,19.1105292 C58.4031171,18.0225638 59.0828845,16.6252775 58.992078,14.9559314 C58.8893159,13.0427451 57.7757271,10.7711961 56.440673,8.19498378 C53.9393682,3.36996256 50.182714,2.10747333 47.1189215,3.57845958 C44.0556984,5.04917186 42.844756,8.69800683 45.3460609,13.523028" id="Fill-36" fill="#F2D2B8"></path>
                        <path d="M44,12.4514672 L50.7409919,12 C50.8044073,12.9136143 51.2473345,21.6112356 50.8076762,24.8715085 C50.5304789,25.8715327 48.840818,26.284164 47.0331522,25.79289 C45.4085411,25.351779 44.2523541,24.331366 44.2347024,23.4028646 L44.2268572,23.4012465 C44.4903253,21.4465066 44.2173775,15.6444247 44,12.4514672" id="Fill-37" fill="#F2D2B8"></path>
                        <path d="M42.258065,16 C42.258065,16 43.9544825,15.9353789 44.778385,14.1961491 C45.8635401,11.9057939 46.1320063,7.61834007 45.9453972,5.76740812 C45.6173416,2.51112186 44.4468795,2 44.4468795,2 C44.4468795,2 38.7077886,4.39867241 38.1071897,6.74072446 C37.20833,10.245648 42.258065,16 42.258065,16" id="Fill-38" fill="#2D334A"></path>
                        <path d="M45.4752217,11 L49.1054463,17.4789882 C49.4892761,18.1638126 50.2918035,18.5764212 51.1501761,18.5313039 L52.1349801,18.4791292 C52.7413405,18.4471186 53.1631563,17.9296566 53.0089441,17.4074055 L52.5874117,15.9797848 C52.4930134,15.6601833 52.6475091,15.3241985 52.9664223,15.1543156 L56.1365615,13.4685941 C56.4753182,13.2886292 56.9101741,13.3440805 57.1777777,13.6011732 L58.2926983,14.6728969 C59.3923111,15.7305057 59.1833875,17.409674 57.8496215,18.2270775 L55.9970901,19.3630744 C55.6016377,19.6055481 55.1460879,19.7575353 54.6704111,19.8081977 C54.6349763,19.8134908 54.5989745,19.8172715 54.5624058,19.8192879 L54.4974892,19.8225646 C54.4966388,19.8225646 54.4955049,19.8228167 54.4946545,19.8228167 L53.7340819,19.8628929 L53.7340819,19.8628929 L51.2482596,19.9939597 C49.7313666,20.0746163 48.307738,19.3419021 47.6299411,18.1320541 L44,11.65357 L45.4752217,11 Z" id="Fill-39" fill="#2D334A"></path>
                        <path d="M45.2580006,15.3713695 C45.8157788,16.4430704 47.6530442,17.2889437 48.4726971,16.9064935 C49.2920542,16.5240434 49.0449747,15.5596526 48.4871964,14.4879517 C47.9291223,13.4162507 46.7428448,12.7239179 45.9234877,13.106368 C45.1038348,13.4888182 44.7002223,14.2996685 45.2580006,15.3713695" id="Fill-40" fill="#F2D2B8"></path>
                        <path d="M45.9148329,5 L49.0620569,3.33155882 C50.1172084,2.77221264 51.3228984,2.64444778 52.4578768,2.97165779 L54,3.41613556 L51.0911518,1 L48.0950189,1.31341381 L45,3.27757367 L45.9148329,5 Z" id="Fill-41" fill="#2D334A"></path>
                        <path d="M48.1063096,28.2821133 C50.0002559,40.6734666 44.8388701,51.3775481 48.1203921,64.1156094 C49.7087182,65.4775045 51.400416,66.7303399 53.0633494,68 C54.1192372,66.0693716 55.1460612,64.1597741 56,62.1290991 C51.0153944,49.9955234 53.7914446,39.6705974 50.4949412,28 C49.6973324,28.0814193 48.9024202,28.1853716 48.1063096,28.2821133" id="Fill-42" fill="#FFFFFF"></path>
                    </g>
                    <g id="Group-68" transform="translate(27.000000, 265.000000)">
                        <path d="M48,24 C48,10.7454655 37.2550037,0 24.0003023,0 C10.7449963,0 0,10.7454655 0,24 C0,37.2545345 10.7449963,48 24.0003023,48 C37.2550037,48 48,37.2545345 48,24" id="Fill-34" fill="#BF8DF3"></path>
                        <path d="M32,14.4997057 C32,10.357796 28.6423358,7 24.5005887,7 C20.3582529,7 17,10.357796 17,14.4997057 C17,18.642204 20.3582529,22 24.5005887,22 C28.6423358,22 32,18.642204 32,14.4997057" id="Fill-36" fill="#FFFFFF"></path>
                        <path d="M24.5003027,22 C31.9561366,22 38,28.2678507 38,36 L11,36 C11,28.2678507 17.0444689,22 24.5003027,22" id="Fill-38" fill="#FFFFFF"></path>
                    </g>
                    <path d="M78.803382,410.196618 C81.732206,413.125442 81.732206,417.874558 78.803382,420.803382 C75.874558,423.732206 71.125442,423.732206 68.196618,420.803382 C65.267794,417.874558 65.267794,413.125442 68.196618,410.196618 C71.125442,407.267794 75.874558,407.267794 78.803382,410.196618" id="Fill-22" fill="#EBA000"></path>
                    <g id="Group-48" transform="translate(403.000000, 81.000000)">
                        <path d="M36,7.5603089 C36,11.735947 32.6170774,15.1210259 28.4440991,15.1210259 C24.2711209,15.1210259 20.8881982,11.735947 20.8881982,7.5603089 C20.8881982,3.38467079 24.2711209,0 28.4440991,0 C32.6170774,0 36,3.38467079 36,7.5603089" id="Fill-24" fill="#52C9BC"></path>
                        <path d="M5.74345417,151.126137 C5.74345417,152.713506 4.45777918,154 2.87142213,154 C1.28567499,154 0,152.713506 0,151.126137 C0,149.539379 1.28567499,148.252885 2.87142213,148.252885 C4.45777918,148.252885 5.74345417,149.539379 5.74345417,151.126137" id="Fill-30" fill="#4D7EF7"></path>
                        <path d="M24.7292878,68.7189051 C24.7292878,70.0417119 23.657892,71.1137907 22.3364361,71.1137907 C21.0144719,71.1137907 19.943076,70.0417119 19.943076,68.7189051 C19.943076,67.3966069 21.0144719,66.3245281 22.3364361,66.3245281 C23.657892,66.3245281 24.7292878,67.3966069 24.7292878,68.7189051" id="Fill-32" fill="#EBA000"></path>
                    </g>
                </g>
                <g id="Group-61" transform="translate(354.000000, 190.655717)">
                    <path d="M63.9962999,34.7444444 C63.9962999,34.7444444 63.897446,34.7525402 63.6954771,34.7563751 C63.4815775,34.7589317 63.1824591,34.7627665 62.7925824,34.7678797 C61.9817242,34.7734189 60.8031463,34.7810886 59.2777273,34.7913149 C56.1915234,34.8019672 51.7136943,34.8181588 46.0947835,34.8377592 C34.8083873,34.8552291 18.9461601,34.8799426 0.595539852,34.9084909 L0.47282458,34.9084909 L0.438310909,34.7904627 C-0.50378446,31.5751521 0.0714433773,27.8076228 2.17720336,24.9263705 C4.27571973,22.053214 7.88005475,20.2222851 11.59347,20.3181564 L11.4251626,20.5354647 C11.1528881,19.5959259 11.0254858,18.5366545 11.0727823,17.4807918 C11.2133935,13.9638062 13.2126299,10.5665532 16.2826421,8.99383767 C19.3126015,7.39385209 23.0524346,7.45307925 25.9230346,9.04582122 L25.6882564,9.12933578 C27.3236079,5.13938506 30.7741227,2.24620209 34.5177907,0.905282082 C38.2725371,-0.45907313 42.4371867,-0.279687264 45.7108722,1.43278731 C49.0016015,3.11884402 51.3438441,5.99029617 52.6408763,9.00363785 C53.9724222,12.0331711 54.155643,15.2864041 53.4934918,18.080307 L53.3665156,17.9358609 C55.2481498,17.7275006 57.0692785,18.0504804 58.6334721,18.6904746 C60.2006484,19.3330254 61.530916,20.2755469 62.5407605,21.3684798 C63.0435522,21.9126027 63.4785949,22.50317 63.7713219,23.1325118 C64.0627707,23.7597232 64.2792268,24.3899173 64.4262295,25.0064763 C64.7291828,26.2391682 64.8374109,27.3947371 64.8744811,28.4297211 C64.9409519,30.5043761 64.6899821,32.1030834 64.4641519,33.1615027 C64.3418627,33.6907123 64.2361913,34.0882586 64.1377634,34.3541417 C64.046153,34.6191726 63.9962999,34.7444444 63.9962999,34.7444444" id="Fill-40" fill="#0038DB"></path>
                    <g id="Group-63" transform="translate(30.000000, 9.344283)">
                        <path d="M14,15 L12.4804973,15 L12.4804973,5.63584791 C12.4804973,3.3869116 10.6950569,1.55703384 8.5,1.55703384 C6.30527262,1.55703384 4.5195027,3.3869116 4.5195027,5.63584791 L4.5195027,15 L3,15 L3,5.63584791 C3,2.5285338 5.46758538,0 8.5,0 C11.5327442,0 14,2.5285338 14,5.63584791 L14,15 Z" id="Fill-42" fill="#FFFFFF"></path>
                        <path d="M14.8107634,21 L1.18923657,21 C0.532562012,21 0,20.4811981 0,19.8414905 L0,12.1585095 C0,11.5188019 0.532562012,11 1.18923657,11 L14.8107634,11 C15.467438,11 16,11.5188019 16,12.1585095 L16,19.8414905 C16,20.4811981 15.467438,21 14.8107634,21" id="Fill-44" fill="#FFFFFF"></path>
                        <path d="M8.5,16 C7.67134242,16 7,15.3283523 7,14.5001966 C7,13.6716477 7.67134242,13 8.5,13 C9.32865758,13 10,13.6716477 10,14.5001966 C10,15.3283523 9.32865758,16 8.5,16" id="Fill-46" fill="#003EE2"></path>
                        <polygon id="Fill-48" fill="#003EE2" points="8 18 9 18 9 15 8 15"></polygon>
                    </g>
                </g>
            </g>
        </g>
    </g>
</svg>