<svg width="320" height="241" viewBox="0 0 320 241" fill="none" xmlns="http://www.w3.org/2000/svg">
<g clip-path="url(#clip0_1438_66715)">
<g clip-path="url(#clip1_1438_66715)">
<path d="M254.191 206.461C254.359 206.473 254.523 206.473 254.687 206.473C255.133 208.18 255.706 209.85 255.836 211.654C255.885 212.357 255.898 213.215 256.241 213.875C257.044 213.615 257.849 213.395 258.672 213.237C258.344 210.675 257.88 208.131 257.263 205.618C257.229 205.472 257.065 205.429 256.944 205.488C256.322 205.794 255.693 205.965 255.034 206.018C254.867 205.42 254.727 204.812 254.647 204.189C254.613 203.92 254.182 203.92 254.216 204.189C254.297 204.818 254.424 205.432 254.572 206.039C254.448 206.039 254.318 206.036 254.188 206.027C253.91 206.008 253.913 206.439 254.188 206.458L254.191 206.461Z" fill="#ED1A60"/>
<path d="M248.607 207.226L249.623 207.018C249.877 208.803 250.224 210.572 250.685 212.319C250.874 213.029 251.115 214.532 251.75 215.347C252.274 215.223 252.803 215.071 253.339 214.891C253.172 211.982 252.874 209.081 252.432 206.2C252.413 206.079 252.274 206.033 252.168 206.048C251.437 206.203 250.7 206.355 249.97 206.504C249.895 205.893 249.827 205.286 249.771 204.688C249.747 204.418 249.316 204.412 249.341 204.688C249.4 205.326 249.474 205.958 249.555 206.59C249.202 206.665 248.846 206.736 248.489 206.81C248.22 206.866 248.335 207.278 248.607 207.222V207.226Z" fill="#ED1A60"/>
<path d="M244.619 207.598C244.83 207.629 245.031 207.641 245.235 207.644C245.105 209.711 245.127 211.784 245.356 213.844C245.421 214.455 245.437 215.238 245.557 215.939C245.561 215.939 245.564 215.939 245.567 215.939C246.477 215.939 247.338 215.917 248.18 215.864C248.177 215.815 248.171 215.768 248.171 215.725C248.159 215.105 248.14 214.489 248.128 213.869C248.072 211.465 248.019 209.057 247.964 206.653C247.961 206.501 247.778 206.368 247.642 206.467C247.032 206.891 246.384 207.139 245.691 207.201C245.703 207.059 245.709 206.913 245.722 206.77C245.746 206.495 245.316 206.495 245.291 206.77C245.279 206.922 245.273 207.068 245.266 207.217C245.09 207.214 244.913 207.204 244.734 207.176C244.464 207.139 244.347 207.551 244.622 207.588L244.619 207.598Z" fill="#ED1A60"/>
<path d="M238.944 209.194C239.331 209.215 239.7 209.197 240.065 209.15C240.186 211.251 240.307 213.349 240.44 215.449C240.459 215.756 240.44 216.159 240.446 216.558C241.245 216.438 242.041 216.295 242.843 216.177C242.756 213.962 242.666 211.75 242.58 209.537C242.561 209.107 242.722 208.273 242.171 208.134C241.902 208.066 241.632 208.264 241.394 208.357C241.081 208.478 240.774 208.565 240.468 208.633C240.449 208.369 240.434 208.109 240.421 207.846C240.403 207.57 239.975 207.567 239.991 207.846C240.009 208.134 240.025 208.422 240.044 208.71C239.687 208.763 239.328 208.785 238.947 208.763C238.669 208.754 238.669 209.184 238.947 209.194H238.944Z" fill="#ED1A60"/>
<path d="M235.861 209.838C235.697 211.883 235.687 213.934 235.709 215.992C235.709 216.196 235.693 216.438 235.693 216.686C236.44 216.763 237.183 216.816 237.926 216.803C238.059 216.803 238.189 216.788 238.323 216.782C238.152 214.951 238.087 213.113 238.155 211.27C238.168 210.851 238.397 210.055 237.979 209.785C237.824 209.683 237.647 209.754 237.471 209.751C237.031 209.739 236.666 209.686 236.313 209.559C236.338 209.228 236.369 208.896 236.409 208.562C236.44 208.292 236.009 208.292 235.978 208.562C235.947 208.834 235.923 209.101 235.898 209.367C235.786 209.302 235.669 209.234 235.554 209.147C235.334 208.983 235.121 209.355 235.34 209.516C235.508 209.64 235.684 209.745 235.861 209.838Z" fill="#ED1A60"/>
<path d="M230.27 209.823C230.648 209.866 231.014 209.881 231.379 209.878L231.206 215.815C231.203 215.948 231.181 216.122 231.159 216.311C232.153 216.292 233.157 216.394 234.16 216.512C234.129 215.641 233.943 214.731 233.903 213.934C233.822 212.37 233.813 210.799 233.869 209.231C233.872 209.098 233.726 208.977 233.593 209.023C233.005 209.234 232.413 209.364 231.822 209.414C231.831 209.008 231.844 208.605 231.856 208.199C231.865 207.923 231.435 207.923 231.426 208.199L231.391 209.438C231.023 209.448 230.651 209.435 230.27 209.386C230.001 209.352 230.001 209.782 230.27 209.816V209.823Z" fill="#ED1A60"/>
<path d="M127.727 212.205C125.782 211.57 123.837 210.935 121.889 210.299C121.982 209.692 122.078 209.088 122.171 208.481C122.215 208.211 121.8 208.093 121.756 208.366C121.663 208.967 121.57 209.565 121.478 210.166C121.313 210.114 121.149 210.061 120.985 210.005C120.722 209.918 120.607 210.334 120.871 210.42C121.05 210.479 121.23 210.538 121.409 210.597C120.171 218.538 116.916 236.463 117.08 238.495C117.155 239.419 118.969 239.834 119.381 238.759C120.917 234.755 125.506 219.998 126.888 215.939C128.448 211.328 126.575 217.162 127.875 212.471C127.906 212.357 127.835 212.242 127.727 212.208V212.205Z" fill="#7F5E53"/>
<path d="M222.061 212.468C223.362 217.156 221.488 211.325 223.049 215.936C224.433 219.995 229.019 234.752 230.555 238.756C230.967 239.831 232.782 239.416 232.856 238.492C233.02 236.46 229.766 218.535 228.527 210.594C228.707 210.535 228.886 210.476 229.066 210.417C229.329 210.331 229.215 209.915 228.951 210.002C228.787 210.055 228.623 210.111 228.459 210.163C228.366 209.562 228.273 208.964 228.18 208.363C228.137 208.09 227.725 208.205 227.765 208.478C227.858 209.085 227.954 209.689 228.047 210.296C226.102 210.932 224.158 211.567 222.21 212.202C222.098 212.239 222.027 212.351 222.058 212.465L222.061 212.468Z" fill="#7F5E53"/>
<path d="M248.893 147.463C245.945 141.152 236.218 143.733 236.218 143.733C236.218 143.733 240.346 102.424 233.861 92.779C227.377 83.1336 217.761 83.806 205.687 83.806H143.05C130.976 83.806 121.36 83.1336 114.876 92.779C108.391 102.424 112.519 143.733 112.519 143.733C112.519 143.733 102.792 141.152 99.8444 147.463C96.8963 153.775 101.613 167.628 103.972 177.627C106.329 187.625 113.405 210.861 119.889 213.73C125.922 216.397 222.825 216.397 228.857 213.73C235.342 210.861 242.414 187.625 244.774 177.627C247.131 167.628 251.847 153.775 248.902 147.463H248.893Z" fill="#F7D1B7"/>
<path d="M244.304 118.384C244.291 118.251 244.273 118.114 244.26 117.978C244.26 117.966 244.257 117.953 244.257 117.941C243.836 113.975 243.542 109.913 242.963 105.91C242.83 104.983 242.684 104.063 242.511 103.152C242.511 103.134 242.507 103.118 242.501 103.099C242.26 101.78 241.972 100.466 241.628 99.1706C241.591 99.0157 241.551 98.8577 241.504 98.7028C241.281 97.8755 241.027 97.0544 240.749 96.2457C239.696 93.1814 238.215 90.0891 235.973 87.7095C234.976 86.6498 233.803 85.7482 232.456 85.1843C230.904 84.5336 229.216 84.4097 227.563 84.2021C226.686 84.0936 225.835 83.917 224.999 83.6939C224.831 83.6506 224.667 83.6041 224.503 83.5514C222.038 82.845 219.703 81.7729 217.244 80.9363C215.73 80.4158 214.16 80.0192 212.556 79.9541C210.843 79.8891 209.211 80.298 207.564 80.707C207.199 80.7969 206.842 80.8806 206.489 80.9487C206.356 80.9735 206.22 81.0014 206.084 81.0262C204.316 81.336 202.656 81.336 200.807 80.7845C199.091 80.2733 197.453 79.9231 195.654 80.1183C193.948 80.3042 192.322 80.8806 190.897 81.7698C190.764 81.8566 190.631 81.9433 190.498 82.0332C190.498 82.0363 190.495 82.0363 190.495 82.0363C187.705 81.1036 184.75 80.7225 181.812 80.9983C180.815 81.0882 179.632 81.1501 179.241 82.2408C178.755 83.6103 179.049 85.5065 179.22 86.9132C179.529 89.4663 180.273 91.9172 181.276 94.2751C181.356 94.4734 181.443 94.6655 181.53 94.8607C183.193 98.6036 185.487 102.12 187.717 105.467C189.931 108.794 192.306 111.998 194.706 114.997C194.852 115.183 194.998 115.366 195.149 115.549C202.21 124.293 209.434 131.224 213.491 134.189C215.804 135.884 217.737 137.312 219.524 138.508C219.914 138.775 220.301 139.026 220.682 139.264C223.314 140.922 225.748 142.065 228.814 142.787C229.071 142.846 229.337 142.908 229.607 142.964C229.997 143.045 230.402 143.119 230.82 143.187C232.406 143.454 234.18 143.627 236.218 143.726C236.868 143.757 237.55 143.63 238.243 143.392C238.376 143.345 238.51 143.292 238.649 143.24C241.38 142.112 244.17 139.295 245.409 137.061C245.496 136.91 245.573 136.761 245.641 136.615C245.954 135.958 246.109 135.363 246.062 134.911C245.477 129.399 244.892 123.89 244.307 118.378L244.304 118.384Z" fill="#FFB100"/>
<path d="M158.244 75.7217C157.99 74.69 157.569 73.7109 156.937 72.8867C157.569 72.6264 158.037 72.016 157.953 71.2879C157.817 70.095 156.38 69.7418 155.448 69.3513C153.618 68.586 152.354 67.3281 150.865 66.0918C150.53 65.8129 150.177 65.5775 149.809 65.3761C148.941 64.7192 147.985 64.1801 146.944 63.7897C145.863 63.3838 144.705 63.1545 143.547 63.1452C142.894 63.139 142.256 63.235 141.621 63.3497C141.757 63.1607 141.875 62.9624 141.971 62.7548C142.169 62.3272 142.398 61.407 141.934 61.0351C141.447 60.6447 140.825 61.1467 140.391 61.3512C139.212 61.9058 137.97 62.0607 136.709 62.3489C135.635 62.5937 134.619 63.0026 133.625 63.4674C132.368 64.0561 130.897 64.6572 129.968 65.7231C128.184 65.4752 126.193 66.9687 125.025 68.1461C123.589 69.593 122.771 71.3436 122.226 73.2678C121.746 74.9719 121.662 76.9053 120.854 78.5072C120.495 79.2199 119.711 79.9914 119.721 80.8218C119.73 81.8071 120.616 82.2223 121.387 81.993C121.26 82.9721 121.238 83.9791 121.551 84.7692C121.706 85.1596 121.932 85.268 122.226 85.5345C122.576 85.8505 122.855 86.1325 123.019 86.6127C123.127 86.935 123.18 87.2603 123.316 87.5764C123.883 88.8932 124.998 89.9033 126.112 90.7801C127.165 91.6074 128.271 92.3666 129.417 93.0668C130.451 95.4898 133.48 96.788 135.653 98.1761C136.963 99.0127 138.162 100.407 139.874 100.168C141.537 99.9391 143.296 99.0809 144.832 98.4333C146.455 97.7485 148.037 96.9429 149.431 95.8647C150.889 94.7369 151.88 93.3797 152.815 91.8243C153.875 90.0644 155.417 88.6515 156.463 86.8916C156.912 86.1387 157.272 85.3145 157.399 84.4469C157.55 83.4152 157.163 82.5569 157.123 81.5437C157.077 80.3043 158.018 79.5669 158.371 78.4639C158.653 77.5808 158.455 76.5986 158.238 75.7217H158.244Z" fill="#66340E"/>
<path d="M152.206 105.919C152.206 105.919 149.1 105.786 147.248 105.742C145.966 105.711 144.681 105.69 143.396 105.69C140.807 105.677 138.218 105.721 135.632 105.807C135.607 105.73 135.542 105.662 135.44 105.652C135.096 105.618 134.756 105.587 134.412 105.556C133.483 105.476 132.551 105.411 131.616 105.358C129.934 105.262 126.562 105.222 126.562 105.222C126.562 105.222 124.298 107.902 124.112 108.553C123.957 109.095 125.537 107.49 125.781 107.917C128.095 111.933 131.622 115.735 136.044 117.368C138.301 118.201 140.67 118.997 143.098 118.505C145.346 118.049 147.338 116.732 148.936 115.118C150.66 113.38 152.054 111.285 153.336 109.206C153.723 108.583 152.209 105.925 152.209 105.925L152.206 105.919Z" fill="#EFB7A5"/>
<path d="M147.369 111.952C147.292 109.882 147.248 107.812 147.248 105.743C147.248 102.951 147.323 100.153 147.462 97.3614C147.475 97.1414 147.171 97.0763 147.063 97.2529C146.799 97.6991 146.524 98.0833 146.168 98.3343C145.846 98.5574 145.459 98.6689 144.96 98.6193C144.647 98.5852 144.526 98.5388 144.232 98.6503C143.978 98.7495 144 98.8579 143.765 98.9787C143.176 99.2762 142.693 99.3134 142.071 99.1987C141.328 99.0562 140.597 98.8641 139.857 98.7154C139.81 98.7061 139.767 98.6968 139.72 98.6906C137.958 98.3622 136.116 98.3467 134.632 99.4249C134.598 98.4427 134.567 97.4574 134.53 96.4783C134.521 96.2025 134.09 96.2025 134.1 96.4783C134.146 97.7053 134.19 98.9323 134.233 100.162C134.298 101.959 134.357 103.763 134.413 105.563C134.434 106.248 134.456 106.926 134.478 107.608C134.546 109.78 134.608 111.949 134.666 114.118C134.67 114.254 134.775 114.325 134.88 114.325C135.137 114.914 135.71 115.267 136.416 115.568C136.837 115.747 137.159 116.076 137.587 116.253C137.899 116.383 138.249 116.445 138.581 116.519C139.432 116.711 140.302 116.854 141.173 116.854C144.08 116.854 146.601 114.957 147.499 112.206C147.543 112.082 147.465 111.992 147.369 111.955V111.952Z" fill="#EFB7A5"/>
<path d="M146.308 98.762C146.287 98.5978 146.24 98.4552 146.166 98.3313C145.327 96.8255 141.134 98.1981 139.715 98.6845C139.613 98.7217 139.523 98.7527 139.449 98.7806C138.542 99.0904 137.687 99.5211 136.783 99.8341C135.95 100.125 135.049 99.8588 134.259 100.144C134.25 100.147 134.237 100.153 134.228 100.156C134.293 101.953 134.352 103.757 134.408 105.557C133.479 105.476 132.547 105.411 131.611 105.359C132.373 106.285 133.407 107.053 134.473 107.602C134.962 107.856 135.461 108.064 135.941 108.218C138.724 109.108 141.236 108.166 143.106 106.034C143.205 105.922 143.301 105.811 143.394 105.693C144.2 104.72 144.89 103.645 145.398 102.493C145.866 101.433 146.457 99.9487 146.308 98.7651V98.762Z" fill="#CF9F90"/>
<path d="M154.184 84.9862C154.206 82.873 154.033 80.7537 153.757 78.7025C153.624 77.7203 153.438 76.7443 153.175 75.79C152.871 74.6993 152.429 73.4848 151.447 73.0758C150.849 72.8279 150.18 72.9394 149.549 72.8434C148.133 72.6296 147.046 71.4212 145.792 70.6838C144.349 69.8348 142.665 69.6024 141.023 69.6179C139.314 69.6303 137.608 69.8937 135.963 70.3956C135.276 70.6063 134.588 70.8604 133.876 70.8945C132.247 70.9781 130.851 70.219 129.253 70.8852C127.754 71.5079 126.679 72.7132 125.97 74.2625C123.982 78.6096 124.756 83.7189 125.688 88.2953C126.559 92.5649 128.574 97.1413 131.612 100.128C133.542 102.028 135.908 103.784 138.661 104.293C141.767 104.866 144.458 103.664 146.762 101.637C151.181 97.7486 154.126 90.8546 154.184 84.9862Z" fill="#EFB7A5"/>
<path d="M154.01 75.6852C152.889 72.9276 150.656 70.991 147.918 69.9221C141.787 67.527 134.764 67.6726 128.632 69.9778C128.632 69.9778 128.632 69.9747 128.629 69.9716C127.914 69.07 126.805 69.3117 125.994 69.9531C125.963 69.9654 125.935 69.9871 125.913 70.0212C124.978 70.8051 124.464 71.9732 124.145 73.1259C123.618 75.0283 123.176 77.2158 123.253 79.3072C122.888 80.0385 122.764 80.8812 122.925 81.8449C123.188 83.4282 123.699 86.4182 125.78 86.5669C126.3 86.6041 126.938 86.3996 127.155 85.8759C127.276 85.5816 127.177 85.2376 127.177 84.9309C127.177 84.0974 127.409 83.4189 127.712 82.6567C127.929 82.1113 128.003 81.5908 127.991 81.0795C128.019 81.095 128.047 81.1167 128.075 81.1322C129.22 81.7643 129.849 81.1229 129.508 79.9362C129.134 78.6256 128.846 77.349 128.7 76.057C128.942 76.3947 129.189 76.7293 129.443 77.0609C130.094 77.9067 130.772 78.734 131.456 79.5551C131.939 80.1314 132.481 80.7914 133.255 80.9525C134.107 81.1291 134.742 80.4351 135.566 80.3638C136.597 80.274 137.588 80.9029 138.603 80.999C139.848 81.1167 140.768 80.4692 141.548 79.6295C141.731 79.7751 141.929 79.9052 142.143 80.0199C142.539 80.2306 142.97 80.3793 143.413 80.4537C144.342 80.6055 145.165 80.2585 146.057 80.7294C147.197 81.3305 147.965 82.2848 149.334 82.4367C149.919 82.5017 150.486 82.4088 150.984 82.1671C151.393 82.7465 151.802 83.3259 152.214 83.9022C152.78 84.6923 153.35 85.4236 154.208 85.91C154.363 85.9968 154.511 85.8821 154.53 85.7241C154.936 82.4057 155.307 78.8673 154.013 75.6883L154.01 75.6852Z" fill="#66340E"/>
<path d="M151.513 93.1625C152.371 93.4165 153.486 92.3445 153.978 91.7961C155.232 90.4018 155.756 88.5985 155.945 86.7673C156.035 85.8873 156.279 83.6379 154.935 83.5387C152.318 83.3528 150.869 88.9176 150.798 90.7612C150.773 91.4119 150.705 92.9177 151.516 93.1594L151.513 93.1625Z" fill="#EFB7A5"/>
<path d="M128.356 90.3431C128.3 88.9178 127.792 87.5762 127.185 86.3027C126.764 85.4228 126.365 84.2268 125.405 83.8209C125.148 83.3995 124.779 83.0803 124.219 83.1206C122.875 83.2167 123.116 85.4692 123.209 86.3492C123.398 88.1804 123.918 89.9806 125.176 91.378C125.671 91.9264 126.786 93.0015 127.64 92.7444C128.452 92.5027 128.384 90.9969 128.359 90.3462L128.356 90.3431Z" fill="#EFB7A5"/>
<path d="M177.513 127.506C177.073 125.03 176.435 122.672 175.417 120.373C174.8 118.982 174.782 117.802 174.646 116.33C174.546 115.261 174.24 114.248 173.782 113.287C173.918 113.234 173.995 113.076 173.862 112.952C166.972 106.557 152.204 105.919 152.204 105.919C152.204 105.919 151.717 107.58 149.878 109.488C146.372 113.129 139.752 115.456 135.001 113.609C132.688 112.711 130.666 111.165 129.059 109.287C128.012 108.063 126.563 105.219 126.563 105.219C126.563 105.219 122.422 105.448 121.205 105.78C118.765 106.446 117.876 106.343 115.548 107.332C114.024 107.979 111.026 109.646 109.735 110.691C109.292 111.05 108.626 111.493 108.45 112.076C108.258 112.705 108.645 113.324 108.911 113.863C111.999 120.175 114.82 126.598 117.334 133.154C117.105 137.439 117.13 141.774 118.381 145.901C119.196 148.591 120.707 150.989 121.583 153.65C122.5 156.427 122.927 159.358 123.618 162.193C124.293 164.966 125.005 167.736 125.795 170.481C126.38 172.517 127.095 175.587 128.935 176.898C129.74 177.471 130.725 177.555 131.685 177.595C132.889 177.645 134.119 177.632 135.255 177.186C137.547 176.291 139.309 174.035 140.922 172.269C143.499 169.443 145.865 166.435 148.011 163.277C150.451 161.744 153.043 160.421 155.402 158.769C159.205 156.111 162.605 152.925 165.999 149.777C169.372 146.651 172.707 143.432 175.41 139.689C176.612 138.022 177.758 136.191 178.098 134.13C178.458 131.949 177.903 129.644 177.519 127.5L177.513 127.506Z" fill="#0070F1"/>
<path d="M161.526 124.376C161.275 122.431 160.56 120.336 158.993 119.053C157.791 118.071 156.19 117.69 154.741 118.161C154.298 117.941 153.802 117.879 153.171 118.031C152.276 118.248 151.365 118.651 150.938 119.444C149.544 118.474 148.154 117.482 146.711 116.602C146.058 116.206 144.593 115.289 144.24 116.485C143.856 117.795 145.345 119.063 146.185 119.785C147.318 120.764 148.507 121.672 149.733 122.527C148.851 123.112 147.934 123.875 147.572 124.816C147.197 125.786 147.878 126.483 148.581 127.06C150.703 128.801 153.31 129.805 156.029 130.068C156.045 130.068 156.057 130.065 156.072 130.065C157.299 130.725 158.788 130.44 159.85 129.476C161.259 128.197 161.761 126.214 161.523 124.376H161.526Z" fill="#EFB7A5"/>
<path d="M122.721 134.509C122.641 132.55 122.266 130.614 121.768 128.721C121.157 126.412 120.371 124.151 119.625 121.886C118.919 119.741 118.308 117.529 117.457 115.438C116.209 112.376 113.245 110.471 109.947 111.493C109.957 111.484 109.969 111.475 109.978 111.466C110.186 111.283 109.424 110.923 109.213 111.106C105.875 114.019 102.995 116.984 99.66 119.896C96.7956 122.394 93.8661 124.907 91.6798 128.048C89.735 130.843 88.357 134.22 88.5707 137.678C88.7534 140.6 90.0416 143.513 92.4447 145.266C95.0614 147.175 98.443 147.373 101.552 146.967C105.25 146.484 108.894 145.291 112.384 144.011C114.196 143.345 115.983 142.611 117.742 141.812C119.138 141.176 120.879 140.569 121.836 139.296C122.824 137.982 122.783 136.067 122.718 134.505L122.721 134.509Z" fill="#0070F1"/>
<path d="M92.8716 133.635C90.7411 135.401 88.976 138.686 90.3199 141.394C90.3478 141.449 90.3912 141.48 90.4376 141.493C90.385 141.604 90.4097 141.75 90.5646 141.778C92.3885 142.106 94.2125 142.463 96.0427 142.76C97.4052 142.983 98.8111 143.15 100.183 142.927C102.707 142.518 104.757 140.535 104.94 137.923C105.373 131.723 96.7147 130.45 92.8747 133.635H92.8716Z" fill="#23276C"/>
<path d="M197.325 164.185C197.087 163.81 196.848 163.798 196.43 163.854C195.637 163.962 194.835 164.244 194.055 164.436C193.024 164.69 191.989 164.941 190.958 165.198C190.277 165.366 189.633 165.517 189.063 165.895C188.989 165.685 188.914 165.471 188.837 165.257C188.747 165.006 188.363 165.152 188.453 165.403C188.546 165.657 188.633 165.914 188.725 166.171C188.645 166.295 188.722 166.459 188.84 166.493C190.782 171.928 192.68 177.375 194.532 182.838C194.538 182.853 194.547 182.866 194.557 182.878C194.699 183.702 194.965 184.468 195.854 184.725C196.746 184.985 198.558 184.368 199.239 183.777C200.214 182.934 202.057 181.443 202.057 181.443L198.313 163.922C198.313 163.922 197.666 164.718 197.325 164.185Z" fill="#EFB7A5"/>
<path d="M216.69 163.104C216.693 162.658 216.501 162.519 216.117 162.339C215.395 161.998 214.569 161.797 213.807 161.533C212.803 161.186 211.797 160.833 210.797 160.489C210.134 160.257 209.512 160.034 208.827 160.043C208.88 159.823 208.936 159.603 208.985 159.386C209.044 159.129 208.641 159.039 208.579 159.296C208.521 159.563 208.456 159.826 208.391 160.089C208.257 160.148 208.233 160.331 208.31 160.424C207.421 164.198 206.508 167.963 205.576 171.724C205.179 173.332 204.777 174.947 204.368 176.558C204.312 176.787 204.25 177.01 204.194 177.236C204.191 177.255 204.194 177.267 204.194 177.283C203.863 178.054 203.671 178.835 204.275 179.538C204.885 180.245 206.74 180.713 207.635 180.589C207.722 180.576 207.808 180.567 207.901 180.552C209.214 180.384 211.267 180.167 211.267 180.167L212.119 177.933L217.659 163.43C217.659 163.43 216.677 163.743 216.687 163.11L216.69 163.104Z" fill="#EFB7A5"/>
<path d="M225.164 186.057C225.056 185.995 224.951 185.936 224.855 185.881C223.449 185.097 222.015 184.372 220.597 183.619C217.776 182.122 215.097 180.505 212.688 178.392C212.496 178.224 212.31 178.07 212.121 177.93C211.365 177.363 210.616 177.059 209.551 177.152C208.944 177.205 208.346 177.221 207.761 177.193C206.788 177.146 205.844 176.97 204.896 176.647C204.927 176.551 204.955 176.458 204.986 176.362C205.073 176.099 204.658 175.984 204.574 176.245C204.543 176.331 204.518 176.418 204.487 176.502C204.475 176.492 204.463 176.489 204.444 176.483C204.426 176.474 204.398 176.502 204.367 176.551C203.977 177.18 202.698 182.005 202.568 184.279C202.453 186.37 203.763 187.817 205.745 188.294C206.962 188.583 208.247 188.53 209.492 188.558C209.761 188.561 210.034 188.57 210.303 188.576C211.508 188.601 212.715 188.623 213.923 188.651C216.391 188.697 222.498 189.097 224.319 188.892C224.396 188.883 224.48 188.877 224.564 188.868C224.477 187.895 224.836 186.968 225.164 186.06V186.057Z" fill="#EFB7A5"/>
<path d="M208.163 182.237C208.052 181.676 207.965 181.109 207.9 180.545C207.767 179.429 207.72 178.308 207.758 177.189C207.816 175.265 208.12 173.35 208.643 171.491C208.721 171.225 208.303 171.107 208.231 171.376C208.157 171.631 208.101 171.878 208.039 172.132C207.318 172.012 206.593 171.888 205.872 171.77C205.776 171.751 205.677 171.736 205.574 171.717C205.178 173.325 204.775 174.94 204.367 176.551C203.977 177.18 202.698 182.004 202.568 184.278C202.453 186.37 203.763 187.817 205.745 188.294C206.962 188.582 208.247 188.529 209.492 188.557C209.761 188.56 210.034 188.57 210.303 188.576C209.374 186.54 208.597 184.439 208.16 182.237H208.163Z" fill="#CF9F90"/>
<path d="M224.753 112.131C219.953 108.488 213.369 108.955 208.166 111.4C204.661 113.048 201.583 115.475 198.675 118.006C197.015 119.456 195.392 120.949 193.81 122.48C192.872 123.388 191.949 124.314 191.035 125.247C190.131 125.114 189.456 125.622 188.954 126.384C188.998 125.278 189.041 124.172 189.097 123.072C189.115 122.796 188.685 122.796 188.666 123.072C188.598 124.479 188.533 125.891 188.465 127.301C188.069 128.218 187.833 129.235 187.703 129.91C187.651 130.18 188.069 130.297 188.121 130.022C188.177 129.724 188.267 129.306 188.388 128.85C188.351 129.616 188.307 130.387 188.255 131.153C188.177 132.404 188.032 133.761 187.115 134.703C186.353 135.49 185.266 135.853 184.328 136.377C184.142 136.479 183.966 136.59 183.808 136.708C182.572 137.597 182.052 138.855 181.981 140.47C181.869 143.017 182.3 145.635 182.869 148.11C184.006 153.068 185.737 158.004 187.846 162.633C188.741 164.606 189.828 166.574 191.453 168.049C191.974 168.523 192.537 168.923 193.135 169.276C194.432 170.047 195.876 170.593 197.281 171.144C199.486 172.015 201.719 172.808 203.97 173.533C207.429 174.652 210.938 175.603 214.487 176.39C214.756 176.449 227.552 146.508 229.323 130.62C230.008 124.488 230.218 116.283 224.756 112.134L224.753 112.131Z" fill="#FCF8F4"/>
<path d="M210.699 119.614C207.314 124.445 204.499 129.644 202.297 135.097C202.245 132.559 202.149 130.022 201.991 127.487C201.975 127.212 201.545 127.212 201.56 127.487C201.734 130.282 201.842 133.08 201.888 135.878C201.888 135.934 201.91 135.974 201.938 136.008C201.021 138.363 200.216 140.764 199.532 143.203C197.637 136.29 195.732 129.38 193.809 122.48C192.871 123.388 191.948 124.315 191.034 125.247C190.13 125.114 189.455 125.622 188.953 126.384C188.997 125.278 189.04 124.172 189.096 123.072C189.114 122.796 188.684 122.796 188.665 123.072C188.597 124.479 188.532 125.892 188.464 127.301C188.068 128.219 187.832 129.235 187.702 129.91C187.65 130.18 188.068 130.298 188.12 130.022C188.176 129.724 188.266 129.306 188.387 128.851C188.35 129.616 188.306 130.387 188.254 131.153C188.176 132.405 188.031 133.762 187.114 134.704C186.352 135.491 185.265 135.853 184.327 136.377C184.141 136.479 183.965 136.591 183.807 136.708C184.64 140.516 185.885 144.268 186.962 147.99C188.315 152.668 189.672 157.341 191.031 162.016C191.728 164.421 192.425 166.828 193.122 169.236C193.125 169.248 193.131 169.26 193.134 169.273C194.431 170.044 195.875 170.59 197.28 171.141C199.485 172.012 201.718 172.805 203.969 173.53C205.152 172.669 206.691 171.55 206.679 170.001C206.67 169.025 206.267 168.021 206.013 167.092C205.682 165.849 205.351 164.61 205.016 163.364C203.756 158.673 202.486 153.988 201.21 149.303C200.73 147.537 200.241 145.774 199.758 144.008C202.099 135.36 205.927 127.174 211.073 119.831C211.231 119.605 210.86 119.388 210.702 119.614H210.699Z" fill="#E7F1FC"/>
<path d="M191.778 126.17C190.211 121.867 189.313 116.324 186.021 112.94C183.42 110.248 178.069 108.203 174.365 108.553C165.979 109.34 161.381 116.268 158.321 123.385C154.258 132.835 150.332 142.422 147.25 152.244C146.315 155.225 145.491 158.239 144.624 161.239C143.779 164.16 141.506 171.631 141.506 171.631C141.506 171.631 151.985 181.397 158.535 183.671C165.945 186.246 172.888 187.07 180.237 184.468C186.507 182.243 187.248 179.436 190.056 176.867C197.798 176.049 203.889 169.982 203.889 169.982C203.889 169.982 193.36 130.508 191.781 126.17H191.778Z" fill="white"/>
<path d="M214.643 195.387C214.507 194.405 213.77 193.391 213.182 192.651C209.896 188.511 205.635 185.277 202.259 181.215C200.6 179.219 198.844 176.973 196.199 176.313C195.505 176.136 194.363 175.851 193.917 176.592C193.681 176.982 193.585 177.509 193.564 178.06C193.455 178.06 193.353 178.129 193.362 178.268C193.458 179.588 193.443 180.911 193.285 182.222C193.112 183.597 192.619 184.945 192.542 186.33C192.433 188.301 193.65 189.475 195.437 190.036C197.85 190.789 200.361 190.944 202.696 192.003C203.901 192.549 204.975 193.277 205.944 194.175C206.861 195.027 207.691 195.972 208.707 196.701C209.546 197.302 210.655 197.794 211.742 197.853C211.893 197.856 212.039 197.856 212.184 197.85C212.649 197.825 213.101 197.708 213.513 197.475C213.637 197.407 213.764 197.32 213.881 197.224C213.9 197.215 213.912 197.203 213.928 197.19C214.315 196.871 214.529 196.518 214.621 196.146C214.68 195.895 214.687 195.644 214.646 195.39L214.643 195.387Z" fill="#EFB7A5"/>
<path d="M144.283 108.926L132.708 110.182C131.766 110.284 131.085 111.131 131.187 112.074L133.778 135.974C133.88 136.917 134.726 137.598 135.668 137.496L147.244 136.24C148.186 136.137 148.867 135.29 148.765 134.348L146.174 110.447C146.072 109.505 145.225 108.824 144.283 108.926Z" fill="white"/>
<path d="M143.733 112.859C144.475 112.859 145.077 112.257 145.077 111.515C145.077 110.772 144.475 110.17 143.733 110.17C142.99 110.17 142.389 110.772 142.389 111.515C142.389 112.257 142.99 112.859 143.733 112.859Z" fill="#E3CEC6"/>
<path d="M142.615 117.099C142.097 116.374 140.404 116.606 139.691 116.708C137.353 117.043 135.251 118.313 133.244 119.593C133.854 119.063 134.489 118.561 135.148 118.09C136.427 117.179 137.843 116.569 139.159 115.735C139.688 115.401 140.202 114.607 139.422 114.198C139.056 114.006 138.474 114.14 138.103 114.186C137.208 114.301 136.341 114.552 135.498 114.871C132.742 115.924 130.073 117.309 128.524 119.909C127.434 121.74 125.112 127.367 124.969 129.238C124.753 132.135 126.71 135.791 130.085 134.735C132.436 134.001 132.643 133.052 133.789 131.066C134.526 129.787 135.182 128.43 136.142 127.292C137.118 126.14 138.412 125.436 139.605 124.547C140.369 123.977 141.379 123.184 141.398 122.127C141.404 121.765 141.292 121.498 141.11 121.303C141.209 121.247 141.305 121.192 141.401 121.13C142.382 120.501 143.107 119.054 142.426 118.168C142.711 117.864 142.89 117.483 142.615 117.095V117.099Z" fill="#EFB7A5"/>
<path d="M125.233 128.637C125.233 128.637 103.345 131.664 97.8668 134.217C92.3887 136.77 87.9232 141.068 90.6143 144.891C91.7756 146.539 96.145 147.271 104.528 144.699C115.583 141.306 128.815 134.716 128.815 134.716L125.233 128.637Z" fill="#EFB7A5"/>
<path d="M113.36 147.286C113.36 152.613 109.969 162.227 106.03 162.227C102.091 162.227 98.8984 157.908 98.8984 152.582C98.8984 150.329 99.4682 148.024 100.726 146.134C102.701 143.166 106.606 142.09 109.988 142.747C110.607 142.868 111.223 143.048 111.762 143.376C113.119 144.2 113.357 145.818 113.357 147.286H113.36Z" fill="#F7D1B7"/>
<path d="M168.083 150.819C164.03 148.232 160.663 144.746 158.214 140.606C158.075 140.368 157.7 140.585 157.842 140.823C160.329 145.025 163.751 148.563 167.866 151.191C168.102 151.339 168.315 150.968 168.083 150.819Z" fill="#E3CEC6"/>
<path d="M258.648 206.018C258.589 206.882 258.171 207.062 256.27 207.3C256.134 207.319 255.991 207.335 255.836 207.353C254.545 207.505 252.668 207.697 249.953 208.097C249.81 208.115 249.665 208.134 249.519 208.162C249.411 208.174 249.299 208.193 249.188 208.208C245.14 208.831 243.725 209.59 242.514 210.241C242.372 210.318 242.236 210.393 242.093 210.464C241.012 211.025 239.867 211.471 236.869 211.613C230.161 211.936 224.779 208.208 224.779 208.208L225.866 190.578L225.891 190.154L228.814 142.794L228.833 142.531L228.864 142.047L229.663 129.139L229.7 128.501L230.186 120.606L230.211 120.188L230.586 114.146L234.568 110.453L234.915 110.124L242.502 103.094C242.505 103.112 242.511 103.128 242.511 103.146C242.545 103.37 242.703 104.339 242.963 105.904C243.384 108.497 244.072 112.73 244.92 117.904C244.942 118.05 244.964 118.192 244.989 118.338C246.032 124.749 247.311 132.56 248.609 140.498C248.652 140.768 248.695 141.04 248.742 141.316C249.25 144.427 249.761 147.547 250.265 150.602C250.287 150.745 250.312 150.89 250.333 151.033C252.653 165.165 254.756 177.884 255.421 181.692C255.765 183.653 256.106 185.745 256.428 187.845C256.449 187.988 256.471 188.13 256.493 188.267C257.753 196.524 258.735 204.828 258.648 206.011V206.018Z" fill="#FFB100"/>
<path d="M113.812 23.0573C98.5765 25.4865 84.9912 35.4293 78.1041 49.2515C77.9338 49.5923 78.454 49.8743 78.6213 49.5334C85.4093 35.9096 98.8026 26.0411 113.834 23.646C114.203 23.5871 114.187 22.9953 113.809 23.0573H113.812Z" fill="#359BFF"/>
<path d="M229.697 47.681C226.402 35.4298 216.579 25.4498 204.396 21.9454C204.031 21.8401 203.898 22.4164 204.263 22.5217C216.251 25.9703 225.894 35.8078 229.136 47.8546C229.235 48.2202 229.799 48.0467 229.7 47.681H229.697Z" fill="#359BFF"/>
<path d="M85.6995 125.876C72.4703 120.175 62.2666 108.472 58.4049 94.5882C58.3027 94.2226 57.7546 94.4395 57.8537 94.802C61.7525 108.822 72.0956 120.658 85.4517 126.412C85.8017 126.564 86.0463 126.025 85.6964 125.876H85.6995Z" fill="#359BFF"/>
<path d="M284.77 50.5742H229.658C226.769 50.5742 224.428 52.9172 224.428 55.8075V75.6065C224.428 78.4968 226.769 80.8398 229.658 80.8398H284.77C287.659 80.8398 290.001 78.4968 290.001 75.6065V55.8075C290.001 52.9172 287.659 50.5742 284.77 50.5742Z" fill="#D0E2FA"/>
<path d="M267.961 61.01H255.038C254.215 61.01 253.549 60.3438 253.549 59.5196C253.549 58.6955 254.215 58.0293 255.038 58.0293H267.961C268.785 58.0293 269.45 58.6955 269.45 59.5196C269.45 60.3438 268.785 61.01 267.961 61.01Z" fill="white"/>
<path d="M281.336 67.1946H255.038C254.215 67.1946 253.549 66.5284 253.549 65.7042C253.549 64.88 254.215 64.2139 255.038 64.2139H281.336C282.159 64.2139 282.825 64.88 282.825 65.7042C282.825 66.5284 282.159 67.1946 281.336 67.1946Z" fill="white"/>
<path d="M275.619 73.385H255.038C254.215 73.385 253.549 72.7188 253.549 71.8946C253.549 71.0705 254.215 70.4043 255.038 70.4043H275.619C276.443 70.4043 277.109 71.0705 277.109 71.8946C277.109 72.7188 276.443 73.385 275.619 73.385Z" fill="white"/>
<path d="M231.588 78.3512L211.023 77.9794C209.976 77.9608 209.667 76.5418 210.614 76.0894L226.333 68.585L231.591 78.3481L231.588 78.3512Z" fill="#D0E2FA"/>
<path d="M249.162 58.4105V73.1342C249.162 73.6796 248.889 74.1629 248.471 74.4449C248.214 74.6184 247.904 74.7237 247.579 74.7237H232.864C232.337 74.7237 231.876 74.4697 231.588 74.0731C231.393 73.8159 231.281 73.4875 231.281 73.1342V58.4105C231.281 57.5367 231.99 56.8271 232.864 56.8271H247.579C248.453 56.8271 249.162 57.5367 249.162 58.4105Z" fill="white"/>
<path d="M243.59 65.0723C243.107 64.6044 242.131 64.7221 241.537 64.719C240.149 64.7097 238.762 64.7128 237.378 64.7252C236.764 64.7314 236.399 64.654 236.105 65.2024C235.693 65.9708 235.894 67.0243 236.223 67.7927L235.455 67.7803C235.098 67.7741 235.098 68.3287 235.455 68.3349C236.926 68.3566 238.396 68.3814 239.867 68.4031C240.914 68.4186 243.763 68.4619 243.763 68.4619C243.763 68.4619 243.986 67.7896 243.992 67.2102C243.998 66.6122 244.079 65.5432 243.587 65.0692L243.59 65.0723Z" fill="#1A2154"/>
<path d="M240.173 59.6028C239.532 59.5284 238.879 59.5873 238.294 59.8104C236.436 60.5199 236.076 62.444 236.256 64.0831C236.399 65.3906 237.105 66.8221 238.13 67.7485C240.991 70.3388 243.456 66.9894 243.859 64.52C244.069 63.2341 244.066 61.4835 243.038 60.4486C242.406 59.8103 241.198 59.7205 240.173 59.6028Z" fill="#FEA587"/>
<path d="M238.27 66.7638C238.317 66.8785 238.27 69.5153 238.27 69.5153L235.867 70.1845C235.867 70.1845 237.716 71.7337 239.543 71.8515C241.37 71.9661 243.24 70.1164 243.24 70.1164L241.531 69.6082L241.463 66.9931L238.273 66.7607L238.27 66.7638Z" fill="#FEA587"/>
<path d="M243.796 59.8912C243.57 59.569 243.303 59.2778 242.994 59.0361C242.384 58.5589 241.631 58.2863 240.866 58.184C239.346 57.9764 237.797 58.2057 236.503 59.0547C235.397 59.7828 234.964 61.1244 234.787 62.3731C234.555 64.006 234.794 65.8495 234.787 67.4917C234.781 68.4987 235.902 68.3717 236.63 68.3624C236.76 68.3624 236.841 68.2849 236.875 68.192C236.946 68.1486 236.998 68.0773 237.005 67.972C237.036 67.154 236.93 63.3274 237.252 62.59C237.429 62.1903 237.686 61.8092 237.94 61.4126C238.138 61.8835 238.454 62.2677 238.953 62.3483C239.324 62.4072 239.38 62.2646 239.816 62.4536C239.99 62.528 240.086 62.686 240.281 62.7449C240.746 62.8843 241.343 62.6303 241.826 62.4598C242.34 62.6179 242.631 62.4536 242.82 63.1508C243.201 64.5544 243.071 66.5932 243.074 68.037C243.074 68.1362 243.118 68.2043 243.18 68.2477C243.204 68.3221 243.26 68.3841 243.362 68.4026C243.777 68.477 244.149 68.508 244.576 68.4863C244.734 68.4801 244.842 68.3655 244.855 68.2074C244.994 66.0881 245.158 63.6465 244.573 61.5737C244.403 60.9757 244.149 60.3932 243.796 59.8881V59.8912Z" fill="#1A2154"/>
<path d="M248.473 74.4444C248.216 74.6179 247.906 74.7232 247.581 74.7232H232.866C232.339 74.7232 231.878 74.4692 231.59 74.0726C231.909 73.4219 232.423 72.5388 233.144 71.8572C234.414 70.6519 235.87 70.1902 235.87 70.1902C235.87 70.1902 238.372 71.3676 239.598 71.3676C240.824 71.3676 243.246 70.1221 243.246 70.1221C243.246 70.1221 245.327 70.5156 246.671 71.6713C247.495 72.3808 248.12 73.614 248.476 74.4475L248.473 74.4444Z" fill="#FFB100"/>
<path d="M96.3132 55.3281H35.7475C32.5733 55.3281 30 57.9028 30 61.0788V82.8391C30 86.0152 32.5733 88.5898 35.7475 88.5898H96.3132C99.4875 88.5898 102.061 86.0152 102.061 82.8391V61.0788C102.061 57.9028 99.4875 55.3281 96.3132 55.3281Z" fill="#D0E2FA"/>
<path d="M75.3379 82.9657L90.868 99.4029C91.6576 100.239 93.0388 99.4401 92.7043 98.337L87.155 80.0098L75.3379 82.9688V82.9657Z" fill="#D0E2FA"/>
<path d="M57.3518 63.8644V80.0444C57.3518 80.4379 57.2249 80.7973 57.0081 81.0855C56.8935 81.2373 56.7511 81.3736 56.5931 81.4852C56.3082 81.6773 55.9707 81.7919 55.6115 81.7919H39.4435C38.8644 81.7919 38.3596 81.5131 38.0407 81.0762C38.0407 81.07 38.0345 81.07 38.0345 81.0638C37.8208 80.7787 37.7031 80.4255 37.7031 80.0444V63.8644C37.7031 62.9039 38.4835 62.123 39.4435 62.123H55.6146C56.5746 62.123 57.3549 62.9039 57.3549 63.8644H57.3518Z" fill="white"/>
<path d="M47.6825 65.1749C46.9795 65.0943 46.2611 65.1563 45.617 65.4011C43.5762 66.1819 43.5081 68.5305 43.7032 70.3276C43.858 71.7653 44.3102 73.1038 45.4374 74.1232C48.5806 76.9706 51.2902 73.2897 51.733 70.5755C51.9653 69.1626 51.9591 67.2385 50.8319 66.1013C50.1382 65.4011 48.8128 65.3019 47.6856 65.1718L47.6825 65.1749Z" fill="#844919"/>
<path d="M45.5946 73.0449C45.6442 73.172 45.5946 76.069 45.5946 76.069L42.9531 76.8064C42.9531 76.8064 44.9846 78.5106 46.9913 78.6376C48.9979 78.7646 51.0572 76.7321 51.0572 76.7321L49.1775 76.1743L49.1001 73.3021L45.5946 73.048V73.0449Z" fill="#844919"/>
<path d="M54.8197 78.4358C53.9712 77.7108 52.8657 77.2584 52.0698 77.0044C52.1318 76.2731 52.2402 75.3591 51.6889 74.9935C51.3669 74.7797 50.955 74.8757 50.6051 74.9253C49.5522 75.074 48.5334 75.2723 47.4619 75.2754C46.4679 75.2816 45.5203 75.1112 44.5386 74.978C44.0865 74.916 43.687 74.789 43.2442 75.0028C42.3492 75.4365 42.2563 76.2545 42.3152 77.0632C41.7237 77.3328 40.804 77.8378 39.9555 78.6434C39.4197 79.1454 38.6146 80.205 38.0293 81.0664C38.0293 81.0726 38.0355 81.0726 38.0355 81.0788C38.3514 81.5157 38.8592 81.7945 39.4383 81.7945H55.6094C55.9686 81.7945 56.3062 81.6799 56.5911 81.4878C56.749 81.3794 56.8914 81.243 57.006 81.0881C56.4765 80.1988 55.5568 79.0741 54.8197 78.4358Z" fill="#ED1A60"/>
<path d="M51.8515 64.946C51.1981 63.9886 49.9129 63.7841 48.8445 63.7129C47.8505 63.6478 46.8534 63.6416 45.8593 63.716C45.2616 63.7593 44.6485 63.8368 44.122 64.1249C43.4686 64.4813 43.0103 65.1319 42.7874 65.8415C42.4343 66.9662 42.775 68.0352 42.7223 69.1661C42.7037 69.603 42.5458 71.2576 43.4903 70.8207C43.7566 70.6967 43.7226 70.8269 43.8155 70.5511C43.9084 70.2722 43.5708 69.6526 43.6297 69.3644C43.704 68.9864 43.7195 68.5929 43.8433 68.2273C43.9486 67.9143 44.1128 67.5766 44.3636 67.3535C44.6949 67.0561 44.9551 67.2668 45.3453 67.273C45.6023 67.2761 45.8562 67.2482 46.1132 67.2358C46.4415 67.2203 46.7666 67.1273 47.0949 67.1459C47.4448 67.1645 47.7762 67.3008 48.1199 67.3535C48.4667 67.4062 48.8291 67.3659 49.1573 67.242C49.5692 67.0871 49.9594 67.3659 50.4084 67.3008C50.461 67.2915 50.5168 67.2823 50.5725 67.2946C50.8141 67.3566 50.9317 68.2397 50.9844 68.4504C51.0928 68.9058 51.1857 69.3675 51.2693 69.8292C51.3374 70.2103 51.4024 70.5883 51.4582 70.9725C51.4768 71.1057 51.4706 71.5922 51.4706 71.5922C51.4706 71.5922 52.1921 70.6379 52.22 69.9996C52.2664 68.8965 52.8115 66.3496 51.8515 64.9429V64.946Z" fill="#1A2154"/>
<path d="M44.6313 70.5912C44.6034 70.3991 44.557 70.2256 44.526 70.1109C44.3959 69.6648 44.1048 69.2527 43.6155 68.9862C43.47 68.9088 43.2873 68.8654 43.117 68.8995C42.8692 68.9521 42.7237 69.1504 42.6587 69.3425C42.5596 69.64 42.5874 69.956 42.6525 70.2597C42.7609 70.774 43.0024 71.31 43.5412 71.623C43.7363 71.7376 43.9933 71.8182 44.2194 71.7469C44.6777 71.6044 44.6963 71.0436 44.6313 70.5881V70.5912Z" fill="#844919"/>
<path d="M50.9353 71.7498C51.1614 71.818 51.4184 71.7375 51.6135 71.6259C52.1492 71.313 52.3908 70.78 52.5022 70.2626C52.5673 69.959 52.5951 69.6429 52.4961 69.3455C52.431 69.1534 52.2855 68.952 52.0377 68.9024C51.8674 68.8683 51.6847 68.9117 51.5392 68.9891C51.0499 69.2525 50.7588 69.6677 50.6287 70.1139C50.5947 70.2285 50.5513 70.402 50.5234 70.5941C50.4553 71.0496 50.4739 71.6104 50.9353 71.7529V71.7498Z" fill="#844919"/>
<path d="M92.7095 66.7983H63.8109C62.9066 66.7983 62.1758 66.064 62.1758 65.1623C62.1758 64.2607 62.9097 63.5264 63.8109 63.5264H92.7095C93.6137 63.5264 94.3445 64.2607 94.3445 65.1623C94.3445 66.064 93.6106 66.7983 92.7095 66.7983Z" fill="white"/>
<path d="M81.329 73.5932H63.8109C62.9066 73.5932 62.1758 72.8589 62.1758 71.9573C62.1758 71.0556 62.9097 70.3213 63.8109 70.3213H81.329C82.2333 70.3213 82.9641 71.0556 82.9641 71.9573C82.9641 72.8589 82.2302 73.5932 81.329 73.5932Z" fill="white"/>
<path d="M92.7087 73.5932H87.596C86.6918 73.5932 85.9609 72.8589 85.9609 71.9573C85.9609 71.0556 86.6949 70.3213 87.596 70.3213H92.7087C93.6129 70.3213 94.3438 71.0556 94.3438 71.9573C94.3438 72.8589 93.6098 73.5932 92.7087 73.5932Z" fill="white"/>
<path d="M88.083 80.394H63.8109C62.9066 80.394 62.1758 79.6597 62.1758 78.758C62.1758 77.8564 62.9097 77.1221 63.8109 77.1221H88.0799C88.9841 77.1221 89.7149 77.8564 89.7149 78.758C89.7149 79.6597 88.981 80.394 88.0799 80.394H88.083Z" fill="white"/>
<path d="M199.663 144.07C199.663 144.07 202.385 132.358 210.979 119.893C201.577 127.366 201.472 127.549 201.472 127.549L201.732 136.008L199.443 143.264L199.663 144.07Z" fill="#E7F1FC"/>
<path d="M166.171 138.084C166.171 138.084 168.503 158.909 173.535 167.792C174.866 170.89 175.384 170.038 175.473 176.48C175.473 176.48 179.369 178.94 189.963 176.926L188.563 178.376C188.563 178.376 180.725 180.158 173.405 177.038C173.526 173.075 174.606 173.676 171.606 168.272C168.846 162.267 168.5 161.047 166.812 150.611C163.836 148.275 160.752 145.997 157.717 140.563C158.522 139.934 162.173 142.239 166.168 138.084H166.171Z" fill="#E7F1FC"/>
<path d="M193.951 0.720703H129.037C125.634 0.720703 122.875 3.48127 122.875 6.88659V30.2054C122.875 33.6108 125.634 36.3713 129.037 36.3713H193.951C197.354 36.3713 200.113 33.6108 200.113 30.2054V6.88659C200.113 3.48127 197.354 0.720703 193.951 0.720703Z" fill="#D0E2FA"/>
<path d="M166.698 25.248L155.711 46.8566C155.151 47.9565 153.491 47.5506 153.5 46.3174L153.652 25.7934L166.695 25.2511L166.698 25.248Z" fill="#D0E2FA"/>
<path d="M152.424 9.83987V27.1818C152.424 27.6032 152.291 27.9905 152.056 28.3004C151.932 28.4646 151.78 28.6102 151.613 28.7279C151.309 28.9324 150.947 29.0564 150.56 29.0564H133.228C132.608 29.0564 132.063 28.7589 131.726 28.2911C131.726 28.2849 131.719 28.2849 131.719 28.2787C131.49 27.975 131.363 27.5939 131.363 27.1849V9.83987C131.363 8.81119 132.199 7.97461 133.228 7.97461H150.56C151.588 7.97461 152.424 8.81119 152.424 9.83987Z" fill="white"/>
<path d="M142.061 11.2436C141.305 11.1568 140.537 11.225 139.847 11.4884C137.657 12.325 137.586 14.8409 137.794 16.7712C137.961 18.3111 138.444 19.7457 139.652 20.8395C143.021 23.8914 145.926 19.944 146.403 17.0377C146.65 15.5225 146.644 13.4621 145.436 12.2413C144.69 11.4915 143.272 11.383 142.064 11.2436H142.061Z" fill="#DB9993"/>
<path d="M139.826 19.6807C139.881 19.817 139.826 22.9216 139.826 22.9216L136.992 23.7117C136.992 23.7117 139.169 25.5367 141.321 25.673C143.474 25.8094 145.679 23.6312 145.679 23.6312L143.663 23.0332L143.582 19.9533L139.826 19.6807Z" fill="#DB9993"/>
<path d="M152.057 28.3C151.933 28.4643 151.781 28.6099 151.614 28.7276C151.311 28.9321 150.948 29.0561 150.561 29.0561H133.229C132.609 29.0561 132.064 28.7586 131.727 28.2907C131.727 28.2845 131.721 28.2845 131.721 28.2783C132.346 27.355 133.21 26.221 133.783 25.6819C135.279 24.2597 136.985 23.7174 136.985 23.7174C136.985 23.7174 138.013 24.1977 139.147 24.5943C139.936 24.8701 140.785 25.1025 141.379 25.1025C142.03 25.1025 142.965 24.805 143.795 24.4766C144.811 24.08 145.671 23.6338 145.671 23.6338C145.671 23.6338 148.121 24.0955 149.71 25.4588C150.499 26.1435 151.487 27.3488 152.054 28.3H152.057Z" fill="#4E59BA"/>
<path d="M146.255 11.6679C145.951 11.2248 145.471 10.9212 145.001 10.664C144.251 10.255 143.406 10.0474 142.554 9.99473C141.455 9.92347 139.888 10.0629 138.937 10.6175C137.95 11.1938 137.414 12.0645 136.99 13.1273C136.705 13.8461 136.782 14.7508 136.748 15.5223C136.726 15.9902 136.559 17.7656 137.569 17.2947C137.854 17.1614 137.819 17.3039 137.919 17.0034C138.018 16.7059 137.658 16.0398 137.717 15.733C137.798 15.3271 137.816 14.9058 137.946 14.5123C138.058 14.1745 138.238 13.8151 138.504 13.5765C138.86 13.2574 139.139 13.4836 139.557 13.4898C139.832 13.4929 140.105 13.465 140.38 13.4526C140.734 13.4371 141.08 13.3379 141.43 13.3565C141.805 13.3751 142.161 13.5239 142.53 13.5796C142.901 13.6354 143.288 13.5951 143.641 13.4619C144.084 13.2946 144.502 13.592 144.982 13.5239C145.041 13.5146 145.1 13.5053 145.156 13.5177C145.413 13.5827 145.543 14.5308 145.595 14.757C145.713 15.2466 145.812 15.7392 145.902 16.235C145.976 16.6409 146.044 17.0499 146.106 17.4589C146.128 17.6014 146.119 18.125 146.119 18.125C146.119 18.125 146.893 17.0995 146.924 16.4178C146.973 15.2342 147.283 13.1768 146.252 11.6679H146.255Z" fill="#4B3E3A"/>
<path d="M138.788 17.0462C138.757 16.8387 138.711 16.6558 138.674 16.5319C138.534 16.0547 138.225 15.6117 137.698 15.3266C137.543 15.243 137.345 15.1965 137.166 15.2337C136.899 15.2894 136.744 15.5032 136.676 15.7108C136.568 16.03 136.599 16.3677 136.67 16.6961C136.788 17.2476 137.045 17.8209 137.621 18.1555C137.828 18.2763 138.107 18.3631 138.348 18.2887C138.841 18.1369 138.863 17.5358 138.788 17.0462Z" fill="#DB9993"/>
<path d="M145.547 18.2887C145.788 18.3631 146.067 18.2763 146.274 18.1555C146.85 17.8209 147.107 17.2476 147.225 16.6961C147.293 16.3708 147.324 16.0331 147.219 15.7108C147.151 15.5032 146.993 15.2894 146.729 15.2337C146.547 15.1965 146.352 15.243 146.197 15.3266C145.673 15.6086 145.361 16.0516 145.221 16.5319C145.187 16.6558 145.138 16.8417 145.107 17.0462C145.036 17.5327 145.054 18.1369 145.547 18.2887Z" fill="#DB9993"/>
<path d="M137.68 9.50487C137.317 9.43361 136.927 9.50487 136.602 9.68149C135.856 10.0843 135.407 10.9921 135.45 11.8287C135.472 12.2532 135.651 12.6839 135.986 12.9472C136.144 13.0712 136.33 13.1548 136.519 13.2199C136.63 13.2602 136.782 13.3036 136.915 13.3036C137.107 13.3036 137.293 13.2354 137.466 13.1517C138.163 12.814 138.751 12.1788 138.878 11.4104C139.005 10.6451 138.581 9.78064 137.841 9.54206C137.788 9.52656 137.736 9.51107 137.683 9.50178L137.68 9.50487Z" fill="#4B3E3A"/>
<path d="M145.862 9.54499C145.125 9.78356 144.698 10.648 144.825 11.4133C144.952 12.1787 145.537 12.8138 146.237 13.1547C146.41 13.2383 146.596 13.3096 146.788 13.3065C146.921 13.3065 147.073 13.26 147.185 13.2228C147.374 13.1578 147.559 13.0741 147.717 12.9502C148.052 12.6868 148.231 12.2561 148.253 11.8316C148.296 10.9951 147.85 10.0903 147.101 9.68442C146.773 9.5078 146.386 9.43654 146.023 9.5078C145.971 9.5171 145.918 9.53259 145.865 9.54808L145.862 9.54499Z" fill="#4B3E3A"/>
<path d="M145.239 12.6099C144.273 12.3341 143.028 12.4487 142.025 12.3806C141.282 12.331 140.532 12.1823 139.873 12.5107C139.873 12.4952 139.867 12.4797 139.864 12.4642C139.811 12.0924 139.247 12.2504 139.3 12.6192C139.309 12.6904 139.325 12.7648 139.34 12.8422C139.328 12.8422 139.315 12.8299 139.3 12.8329C138.77 12.8887 138.213 13.338 137.851 13.7036C137.587 13.9701 136.928 14.8283 137.278 15.2218C137.634 15.6246 138.507 15.4697 138.82 15.2218C139.12 14.9833 139.377 14.1126 139.631 13.7656C139.805 14.1653 140.037 14.534 140.325 14.7912C140.938 15.3365 141.632 15.194 142.443 15.2435C143.186 15.29 144.013 15.6122 144.803 15.4666C145.261 15.383 145.828 15.3024 146.178 14.9523C146.893 14.2427 145.964 12.8144 145.236 12.6068L145.239 12.6099Z" fill="#4B3E3A"/>
<path d="M143.796 24.4736C142.966 24.8021 142.031 25.0995 141.381 25.0995C140.783 25.0995 139.937 24.864 139.148 24.5914C138.609 26.06 138.132 27.5504 137.711 29.0531H145.902C145.31 27.4791 144.61 25.9547 143.796 24.4736Z" fill="white"/>
<path d="M166.958 12.9811H159.346C158.377 12.9811 157.594 12.1941 157.594 11.2273C157.594 10.2606 158.38 9.47363 159.346 9.47363H166.958C167.928 9.47363 168.711 10.2606 168.711 11.2273C168.711 12.1941 167.924 12.9811 166.958 12.9811Z" fill="white"/>
<path d="M179.782 20.2652H159.346C158.377 20.2652 157.594 19.4782 157.594 18.5115C157.594 17.5448 158.38 16.7578 159.346 16.7578H179.782C180.751 16.7578 181.535 17.5448 181.535 18.5115C181.535 19.4782 180.748 20.2652 179.782 20.2652Z" fill="white"/>
<path d="M190.32 27.5563H159.346C158.377 27.5563 157.594 26.7693 157.594 25.8025C157.594 24.8358 158.38 24.0488 159.346 24.0488H190.32C191.289 24.0488 192.073 24.8358 192.073 25.8025C192.073 26.7693 191.286 27.5563 190.32 27.5563Z" fill="white"/>
<path d="M190.321 13.1451H174.132C173.162 13.1451 172.379 12.3581 172.379 11.3914C172.379 10.4247 173.165 9.6377 174.132 9.6377H190.321C191.291 9.6377 192.074 10.4247 192.074 11.3914C192.074 12.3581 191.288 13.1451 190.321 13.1451Z" fill="white"/>
<path d="M132.589 88.9893C132.388 89.073 132.252 89.2713 132.19 89.4819C132.035 89.9932 132.112 90.6841 132.27 91.183C132.372 91.5114 132.561 91.8213 132.843 92.0165C133.054 92.159 133.335 92.2303 133.562 92.1187C133.812 91.9979 133.93 91.7035 133.98 91.4278C134.082 90.8855 134.023 90.3123 133.815 89.8011C133.664 89.4262 133.394 89.0606 133.004 88.9645C132.871 88.9304 132.725 88.9335 132.586 88.9893H132.589Z" fill="#4B3E3A"/>
<path d="M145.343 88.3074C145.132 88.3632 144.968 88.5398 144.875 88.7381C144.649 89.2215 144.627 89.9186 144.711 90.433C144.767 90.7707 144.906 91.1084 145.16 91.3377C145.346 91.5081 145.615 91.6197 145.857 91.5422C146.123 91.4585 146.281 91.1828 146.371 90.9194C146.55 90.3958 146.575 89.8226 146.442 89.2865C146.346 88.8961 146.132 88.4933 145.758 88.3415C145.631 88.2888 145.488 88.2703 145.343 88.3043V88.3074Z" fill="#4B3E3A"/>
<path d="M139.669 93.4636C137.934 92.8935 138.829 89.9468 138.993 88.6269C139.037 88.283 138.498 88.2861 138.455 88.6269C138.247 90.2691 137.352 93.2684 139.523 93.9841C139.854 94.0925 139.994 93.572 139.665 93.4636H139.669Z" fill="#CF9F90"/>
<path d="M143.02 97.1811C141.425 98.69 139.223 98.8543 137.411 97.6366C137.173 97.4755 136.947 97.8628 137.185 98.0239C139.167 99.3531 141.608 99.1331 143.335 97.4971C143.546 97.2988 143.227 96.9828 143.02 97.1811Z" fill="#E37D74"/>
<path d="M135.08 85.7261C134.795 85.41 134.383 85.2148 133.962 85.1498C132.581 84.936 131.073 85.8004 130.382 86.9717C130.299 87.1142 130.225 87.297 130.308 87.4364C130.41 87.6068 130.658 87.5944 130.853 87.5573C131.847 87.3683 132.847 87.1142 133.86 87.1793C134.126 87.1947 134.396 87.235 134.662 87.1978C134.928 87.1607 135.198 87.0336 135.325 86.795C135.477 86.5162 135.39 86.163 135.213 85.8996C135.173 85.8376 135.127 85.7788 135.077 85.7261H135.08Z" fill="#66340E"/>
<path d="M143.634 86.4761C143.91 86.6218 144.251 86.5505 144.567 86.504C145.65 86.3429 146.753 86.504 147.837 86.6465C148.016 86.6713 148.236 86.6775 148.345 86.5412C148.456 86.4018 148.379 86.2097 148.286 86.0609C147.536 84.8711 145.935 84.205 144.464 84.4714C144.142 84.5303 143.761 84.7968 143.504 85.1283C143.151 85.5838 143.037 86.157 143.634 86.473V86.4761Z" fill="#66340E"/>
<path d="M239.028 64.539C239.047 64.3655 238.632 64.2415 238.517 64.2632C238.366 64.2942 238.233 64.3995 238.167 64.5421C238.155 64.5699 238.146 64.604 238.158 64.6288C238.177 64.6629 238.226 64.666 238.263 64.666C238.465 64.6629 238.663 64.6598 238.864 64.6536C238.908 64.6536 238.954 64.6505 238.985 64.6164C239.01 64.5885 239.022 64.5607 239.025 64.5359L239.028 64.539Z" fill="#311B16"/>
<path d="M241.188 64.4929C241.154 64.3224 241.556 64.1613 241.674 64.1768C241.829 64.1954 241.971 64.2884 242.045 64.4247C242.061 64.4526 242.073 64.4836 242.061 64.5114C242.045 64.5486 241.999 64.5548 241.959 64.5579C241.757 64.5703 241.559 64.5827 241.358 64.5982C241.315 64.5982 241.268 64.6013 241.234 64.5734C241.206 64.5486 241.191 64.5207 241.188 64.496V64.4929Z" fill="#311B16"/>
<path d="M239.122 63.3746C239.008 63.2661 238.769 63.1855 238.583 63.1855C238.351 63.1855 238.125 63.2413 237.945 63.325C237.809 63.39 237.252 63.7185 237.691 63.7588C237.784 63.7681 237.877 63.7495 237.967 63.734C238.221 63.6906 238.49 63.6689 238.757 63.6782C238.902 63.6813 239.079 63.6844 239.147 63.6069C239.218 63.5264 239.196 63.4427 239.122 63.3746Z" fill="#1A2154"/>
<path d="M240.908 63.5666C240.982 63.6503 241.159 63.6441 241.304 63.6379C241.567 63.6255 241.837 63.641 242.094 63.6875C242.184 63.703 242.28 63.7216 242.37 63.7123C242.806 63.6596 242.227 63.3002 242.088 63.232C241.902 63.1391 241.673 63.0802 241.44 63.0864C241.255 63.0895 241.022 63.1824 240.917 63.3064C240.849 63.3869 240.83 63.4768 240.908 63.5666Z" fill="#1A2154"/>
<path d="M241.223 66.6064L239.223 66.6312C239.223 66.6312 239.446 67.2633 240.195 67.2602C240.944 67.254 241.226 66.6064 241.226 66.6064H241.223Z" fill="white"/>
<path d="M240.09 65.9274C239.558 65.7601 240.007 64.9979 240.131 64.6601C240.159 64.5827 240.038 64.5424 240.01 64.6198C239.858 65.035 239.381 65.8375 240.05 66.0451C240.128 66.0699 240.168 65.9491 240.09 65.9243V65.9274Z" fill="#AB4B1F"/>
<path d="M49.4614 69.8102C49.5358 69.8226 49.6008 69.8753 49.641 69.9434C49.737 70.1045 49.7711 70.3462 49.7618 70.529C49.7556 70.6499 49.7185 70.7707 49.641 70.8606C49.5822 70.9287 49.4924 70.9752 49.4057 70.9566C49.3097 70.938 49.2447 70.8482 49.2044 70.7583C49.1239 70.5817 49.0929 70.3834 49.1177 70.1913C49.1363 70.0519 49.1951 69.9031 49.319 69.8381C49.3623 69.8164 49.4119 69.804 49.4614 69.8102Z" fill="#311B16"/>
<path d="M45.645 69.7047C45.7194 69.7171 45.7844 69.7698 45.8246 69.838C45.9206 69.9991 45.9547 70.2408 45.9454 70.4236C45.9392 70.5444 45.9021 70.6652 45.8246 70.7551C45.7658 70.8233 45.676 70.8697 45.5893 70.8511C45.4933 70.8326 45.4283 70.7427 45.388 70.6528C45.3075 70.4762 45.2765 70.2779 45.3013 70.0858C45.3199 69.9464 45.3787 69.7977 45.5026 69.7326C45.5459 69.7109 45.5955 69.6985 45.645 69.7047Z" fill="#311B16"/>
<path d="M47.8033 70.426C47.9798 71.0364 48.3266 71.7521 47.7166 72.2262C47.6299 72.2943 47.5308 72.1518 47.6175 72.0836C48.1377 71.6808 47.7878 70.9961 47.6423 70.4848C47.6113 70.3795 47.7723 70.3175 47.8033 70.426Z" fill="#543E36"/>
<path d="M46.1585 72.6639C46.688 73.0884 47.3259 73.2588 47.9979 73.1566C48.1094 73.1411 48.1218 73.3115 48.0134 73.327C47.2981 73.4354 46.6106 73.2464 46.047 72.7941C45.9603 72.7259 46.0718 72.5927 46.1585 72.6639Z" fill="#543E36"/>
<path d="M48.5716 68.7838C48.5313 68.9046 48.5654 69.041 48.649 69.1339C48.7883 69.2826 48.9556 69.2517 49.1166 69.2393C49.4417 69.2145 49.7669 69.2764 50.089 69.3167C50.1571 69.326 50.2252 69.3322 50.2903 69.3167C50.6928 69.2207 50.0642 68.7404 49.9217 68.6661C49.7019 68.5514 49.451 68.4956 49.2002 68.4863C49.0423 68.4801 48.8627 68.5018 48.7326 68.5824C48.6583 68.6289 48.5994 68.6939 48.5685 68.7869L48.5716 68.7838Z" fill="#1A2154"/>
<path d="M46.3446 68.4621C46.2269 68.3629 46.0566 68.3134 45.8987 68.2979C45.651 68.27 45.397 68.2855 45.1586 68.3691C45.0068 68.4218 44.3101 68.8029 44.6941 68.9578C44.756 68.9826 44.8272 68.9857 44.8923 68.9857C45.2174 68.9919 45.5488 68.9826 45.8646 69.057C46.0226 69.0942 46.1836 69.1499 46.3415 69.0229C46.4406 68.9454 46.4933 68.8153 46.4716 68.6914C46.4561 68.5953 46.4066 68.5241 46.3415 68.4652L46.3446 68.4621Z" fill="#1A2154"/>
<path d="M139.949 16.6158C139.878 16.6313 139.822 16.6839 139.788 16.749C139.705 16.9039 139.683 17.1332 139.701 17.3036C139.714 17.4152 139.754 17.5298 139.832 17.6104C139.89 17.6693 139.977 17.7126 140.058 17.6909C140.147 17.6693 140.203 17.5825 140.237 17.4957C140.305 17.3284 140.324 17.1394 140.29 16.9597C140.265 16.8296 140.203 16.6932 140.082 16.6375C140.042 16.6189 139.996 16.6096 139.946 16.6189L139.949 16.6158Z" fill="#311B16"/>
<path d="M144.042 16.724C143.971 16.7302 143.906 16.7767 143.866 16.8356C143.764 16.9781 143.714 17.2012 143.711 17.3747C143.711 17.4862 143.733 17.604 143.801 17.6938C143.85 17.762 143.931 17.8116 144.014 17.8023C144.107 17.7899 144.172 17.7124 144.219 17.6319C144.309 17.4738 144.352 17.291 144.34 17.1082C144.33 16.975 144.287 16.8325 144.175 16.7612C144.138 16.7364 144.092 16.7209 144.042 16.724Z" fill="#311B16"/>
<path d="M143.45 19.5526C143.428 19.6053 143.029 20.4636 142.053 20.479C141.047 20.4945 140.777 19.4473 140.777 19.4473C140.883 19.4659 140.991 19.4844 141.099 19.4999C141.437 19.5557 141.774 19.6022 142.115 19.6115C142.344 19.6177 142.57 19.6115 142.8 19.596C142.886 19.5898 142.97 19.5836 143.057 19.5774C143.084 19.5774 143.112 19.5774 143.143 19.5712C143.177 19.5712 143.425 19.5712 143.45 19.5526Z" fill="white"/>
<path d="M143.45 19.5526C143.428 19.6053 143.029 20.4636 142.053 20.479C141.047 20.4945 140.777 19.4473 140.777 19.4473C140.883 19.4659 140.991 19.4844 141.099 19.4999C141.118 19.5402 141.14 19.5774 141.158 19.6146C141.248 19.7819 141.397 19.8687 141.542 19.9089C141.936 20.0143 142.527 20.0391 142.83 19.8284C142.902 19.7788 142.988 19.6858 143.057 19.5774C143.084 19.5774 143.112 19.5774 143.143 19.5712C143.177 19.5712 143.425 19.5712 143.45 19.5526Z" fill="#F26946"/>
<path d="M140.683 15.5029C140.594 15.4471 140.485 15.413 140.383 15.4006C140.067 15.3604 139.696 15.4223 139.417 15.5773C139.25 15.6671 138.884 15.9646 139.277 16.0327C139.473 16.0668 139.674 15.9986 139.872 15.9893C140.107 15.977 140.34 16.0451 140.575 16.042C140.693 16.042 140.826 16.0048 140.869 15.8964C140.891 15.8468 140.885 15.7879 140.869 15.7353C140.838 15.6361 140.77 15.5587 140.683 15.5029Z" fill="#4B3E3A"/>
<path d="M143.377 15.7641C143.362 15.8168 143.356 15.8726 143.377 15.9253C143.421 16.0337 143.554 16.0709 143.672 16.074C143.907 16.0833 144.139 16.0182 144.374 16.0337C144.573 16.0461 144.771 16.1174 144.969 16.0833C145.362 16.0213 145 15.7177 144.836 15.6247C144.557 15.4667 144.189 15.3985 143.873 15.4357C143.771 15.4481 143.662 15.4791 143.572 15.5349C143.486 15.5875 143.414 15.6619 143.384 15.7641H143.377Z" fill="#4B3E3A"/>
<path d="M142.203 17.3223C142.157 17.2293 142.005 17.2882 142.052 17.3811C142.16 17.6011 142.275 17.818 142.377 18.038C142.513 18.3385 142.402 18.5647 142.207 18.8033C142.138 18.8839 142.265 18.9861 142.334 18.9056C142.491 18.7165 142.637 18.4935 142.609 18.2363C142.578 17.9233 142.34 17.598 142.203 17.3223Z" fill="#CB8C84"/>
</g>
</g>
<defs>
<clipPath id="clip0_1438_66715">
<rect width="320" height="240.009" fill="white" transform="translate(0 0.0546875)"/>
</clipPath>
<clipPath id="clip1_1438_66715">
<rect width="320" height="240" fill="white" transform="translate(0 0.0585938)"/>
</clipPath>
</defs>
</svg>
